<svg width="435" height="230" viewBox="0 0 435 230" fill="none" xmlns="http://www.w3.org/2000/svg">
<path d="M108.7 162.383C107.082 162.558 105.317 162.821 103.44 163.204C95.4809 164.832 95.3157 170.26 95.3854 171.504L95.3314 171.47C94.5311 172.76 94.0298 174.064 93.7269 175.296L93.3624 158.661C93.5981 158.167 93.8125 157.608 93.9913 157.034C94.5871 158.877 95.5637 160.617 96.4056 160.502C97.5003 160.352 97.9776 157.117 97.7734 154.818C99.1655 156.619 101.508 158.544 102.392 157.951C103.098 157.476 102.68 155.523 101.909 153.747C103.515 154.719 105.294 155.358 105.847 154.741C106.6 153.898 104.795 151.024 103.13 149.42C105.358 149.629 108.193 149.272 108.379 148.254C108.532 147.414 106.845 146.355 105.039 145.673C106.853 145.193 108.549 144.356 108.493 143.528C108.426 142.545 105.908 141.886 103.736 141.786C105.374 140.499 106.879 138.719 106.419 137.914C105.996 137.174 104.027 137.461 102.21 138.113C103.285 136.569 104.041 134.83 103.466 134.234C102.748 133.493 100.204 134.773 98.467 136.187C98.8051 133.984 98.6342 131.202 97.65 130.95C96.8266 130.74 95.6596 132.358 94.8595 134.121C94.5059 132.271 93.79 130.514 92.9638 130.514C91.7868 130.514 90.8327 134.078 90.8327 136.4C90.8327 136.531 90.8362 136.655 90.8421 136.773C90.724 136.635 90.5886 136.492 90.4342 136.341C88.7757 134.723 85.5653 132.928 84.7454 133.776C84.1698 134.371 84.9256 136.11 86.0006 137.654C84.184 137.002 82.2151 136.716 81.7918 137.456C81.2231 138.45 83.654 140.932 85.63 142.135C85.5112 142.121 85.3864 142.109 85.2536 142.1C82.9471 141.942 79.3418 142.655 79.2617 143.834C79.2054 144.662 80.9014 145.499 82.7151 145.979C80.9094 146.661 79.2224 147.72 79.3755 148.559C79.5614 149.578 82.3959 149.935 84.6246 149.726C82.9596 151.33 81.1542 154.204 81.9076 155.047C82.4598 155.664 84.2391 155.025 85.8457 154.053C85.0746 155.829 84.6559 157.782 85.3621 158.256C86.2954 158.883 88.8551 156.701 90.2047 154.823C90.0672 157.121 90.6145 160.276 91.7005 160.401C92.1546 160.453 92.6359 159.967 93.0702 159.218L91.8401 177.098C91.5526 179.181 93.3918 180.54 93.5561 181.397L93.8215 193.506C93.522 192.644 93.1187 191.761 92.5751 190.885L92.521 190.919C92.5907 189.674 92.4254 184.247 84.4663 182.619C82.5892 182.235 80.8245 181.973 79.2068 181.798C77.2974 181.592 76.5525 184.217 78.2775 185.065C80.7757 186.293 83.1256 187.84 84.3505 189.672C87.482 194.356 91.8088 191.648 92.4239 191.228C93.1111 192.377 93.5616 193.534 93.8462 194.635L93.9871 201.066C93.9526 201.218 93.9287 201.303 93.9268 201.309L93.9929 201.329L94.3338 216.891L97.4968 216.865L96.3655 200.959C96.5556 200.101 97.1405 197.177 96.3655 194.141L95.2341 181.643C95.2984 181.971 95.2313 181.634 95.2341 181.643L93.7584 176.732C93.973 175.213 94.471 173.504 95.4825 171.813C96.0976 172.234 100.424 174.941 103.556 170.257C104.781 168.425 107.131 166.878 109.629 165.65C111.354 164.802 110.609 162.177 108.7 162.383ZM94.2507 199.203L94.1911 196.481C94.3113 197.51 94.3053 198.439 94.2507 199.203Z" fill="#EF476F"/>
<path d="M350.764 162.383C349.147 162.558 347.382 162.821 345.505 163.204C337.546 164.832 337.38 170.26 337.45 171.504L337.396 171.47C336.596 172.76 336.095 174.064 335.792 175.296L335.427 158.661C335.663 158.167 335.877 157.608 336.056 157.034C336.652 158.877 337.628 160.617 338.47 160.502C339.565 160.352 340.042 157.117 339.838 154.818C341.23 156.619 343.573 158.544 344.457 157.951C345.163 157.476 344.744 155.523 343.973 153.747C345.58 154.719 347.359 155.358 347.911 154.741C348.665 153.898 346.859 151.024 345.194 149.42C347.423 149.629 350.258 149.272 350.443 148.254C350.596 147.414 348.909 146.355 347.104 145.673C348.917 145.193 350.613 144.356 350.557 143.528C350.49 142.545 347.972 141.886 345.8 141.786C347.439 140.499 348.944 138.719 348.484 137.914C348.06 137.174 346.092 137.461 344.275 138.113C345.35 136.569 346.106 134.83 345.53 134.234C344.813 133.493 342.268 134.773 340.532 136.187C340.87 133.984 340.699 131.202 339.715 130.95C338.891 130.74 337.724 132.358 336.924 134.121C336.571 132.271 335.855 130.514 335.028 130.514C333.852 130.514 332.897 134.078 332.897 136.4C332.897 136.531 332.901 136.655 332.907 136.773C332.789 136.635 332.653 136.492 332.499 136.341C330.84 134.723 327.63 132.928 326.81 133.776C326.234 134.371 326.99 136.11 328.065 137.654C326.249 137.002 324.28 136.716 323.857 137.456C323.288 138.45 325.719 140.932 327.695 142.135C327.576 142.121 327.451 142.109 327.318 142.1C325.012 141.942 321.407 142.655 321.326 143.834C321.27 144.662 322.966 145.499 324.78 145.979C322.974 146.661 321.287 147.72 321.44 148.559C321.626 149.578 324.461 149.935 326.689 149.726C325.024 151.33 323.219 154.204 323.972 155.047C324.524 155.664 326.304 155.025 327.91 154.053C327.139 155.829 326.721 157.782 327.427 158.256C328.36 158.883 330.92 156.701 332.269 154.823C332.132 157.121 332.679 160.276 333.765 160.401C334.219 160.453 334.701 159.967 335.135 159.218L333.905 177.098C333.617 179.181 335.456 180.54 335.621 181.397L335.886 193.506C335.587 192.644 335.183 191.761 334.64 190.885L334.586 190.919C334.655 189.674 334.49 184.247 326.531 182.619C324.654 182.235 322.889 181.973 321.272 181.798C319.362 181.592 318.617 184.217 320.342 185.065C322.84 186.293 325.19 187.84 326.415 189.672C329.547 194.356 333.873 191.648 334.489 191.228C335.176 192.377 335.626 193.534 335.911 194.635L336.052 201.066C336.017 201.218 335.993 201.303 335.992 201.309L336.058 201.329L336.399 216.891L339.562 216.865L338.43 200.959C338.62 200.101 339.205 197.177 338.43 194.141L337.299 181.643C337.363 181.971 337.296 181.634 337.299 181.643L335.823 176.732C336.038 175.213 336.536 173.504 337.547 171.813C338.162 172.234 342.489 174.941 345.621 170.257C346.845 168.425 349.195 166.878 351.694 165.65C353.419 164.802 352.674 162.177 350.764 162.383ZM336.315 199.203L336.256 196.481C336.376 197.51 336.37 198.439 336.315 199.203Z" fill="#EF476F"/>
<path d="M301.656 111.456L300.173 75.9447C300.173 75.9447 298.507 54.8625 297.174 47.5004C295.841 40.1384 286.845 42.1462 286.845 42.1462L287.844 63.2284L292.157 84.8033L295.514 114.182C295.341 115.032 295.243 115.956 295.243 116.926C295.243 121.042 296.955 124.378 299.066 124.378C301.177 124.378 302.889 121.042 302.889 116.926C302.889 114.761 302.412 112.817 301.656 111.456Z" fill="#FFB6B6"/>
<path d="M229.458 102.255C231.035 100.368 232.924 99.0859 234.62 98.5925L254.569 75.9447C254.569 75.9447 256.235 54.8625 257.568 47.5004C258.901 40.1384 267.898 42.1462 267.898 42.1462L266.898 63.2284L261.234 85.9839L237.89 105.887C237.483 106.633 236.983 107.378 236.384 108.094C233.544 111.492 229.692 112.938 227.779 111.325C225.867 109.713 226.618 105.652 229.458 102.255Z" fill="#FFB6B6"/>
<path d="M273.35 39.3018L275.664 30.3674L284.679 29.9319L287.376 42.2476L273.35 39.3018Z" fill="#FFB6B6"/>
<path opacity="0.1" d="M273.35 39.3018L275.664 30.3674L284.679 29.9319L287.376 42.2476L273.35 39.3018Z" fill="black"/>
<path d="M250.329 185.671L241.886 185.187L242.993 211.211L248.715 211.54L250.329 185.671Z" fill="#FFB6B6"/>
<path d="M242.261 202.983L245.193 204.326L245.19 206.111C245.19 206.111 245.897 204.045 249.694 203.594L250.147 205.325C250.147 205.325 251.619 207.022 251.367 210.093L250.4 218.315L247.537 218.249L247.074 212.527C247.074 212.527 246.286 211.229 242.653 217.398C242.653 217.398 238.65 218.411 232.452 216.324C231.601 216.037 231.009 215.239 231.02 214.336C231.026 213.838 231.22 213.378 231.842 213.213C233.424 212.793 234.969 213.326 235.991 212.057C237.013 210.789 242.261 202.983 242.261 202.983Z" fill="#06D6A0"/>
<path d="M295.646 185.671L287.202 185.187L288.31 211.211L294.031 211.54L295.646 185.671Z" fill="#FFB6B6"/>
<path d="M287.578 202.983L290.51 204.326L290.506 206.111C290.506 206.111 291.213 204.045 295.01 203.594L295.463 205.325C295.463 205.325 296.936 207.022 296.683 210.093L295.717 218.315L292.854 218.249L292.391 212.527C292.391 212.527 291.602 211.229 287.969 217.398C287.969 217.398 283.967 218.411 277.769 216.324C276.917 216.037 276.325 215.239 276.337 214.336C276.343 213.838 276.536 213.378 277.158 213.213C278.741 212.793 280.286 213.326 281.308 212.057C282.33 210.789 287.578 202.983 287.578 202.983Z" fill="#06D6A0"/>
<path d="M280.281 35.6289C285.802 35.6289 290.277 31.1342 290.277 25.5897C290.277 20.0452 285.802 15.5505 280.281 15.5505C274.76 15.5505 270.285 20.0452 270.285 25.5897C270.285 31.1342 274.76 35.6289 280.281 35.6289Z" fill="#FFB6B6"/>
<path d="M285.95 27.2586C285.95 27.2586 281.555 20.0364 277.155 20.8336C272.756 21.6307 270.462 22.3504 270.462 22.3504C270.462 22.3504 268.671 16.5922 274.685 13.8296C274.685 13.8296 266.173 6.67222 275.245 2.07887C284.317 -2.51448 289.963 1.93722 289.963 1.93722C289.963 1.93722 297.471 8.33236 289.146 14.2508C289.146 14.2508 296.351 22.4936 289.074 30.3674C289.074 30.3674 290.359 24.372 288.611 25.6011C286.863 26.8301 285.95 27.2586 285.95 27.2586Z" fill="#2F2E41"/>
<path d="M287.011 39.9711L273.35 38.2979L262.853 46.8311C262.853 46.8311 257.633 61.4382 261.521 70.2559C261.614 70.4671 261.687 85.1473 261.687 85.1473H290.713C290.713 85.1473 290.685 75.1552 291.794 71.5362C291.953 71.0193 292.134 70.6323 292.343 70.4232C294.009 68.75 298.007 58.0415 296.008 53.3566C294.009 48.6717 287.011 39.9711 287.011 39.9711Z" fill="#118AB2"/>
<path d="M261.521 84.478L243.194 143.04L239.196 189.22H250.358L259.855 146.386L272.932 121.591L285.845 192.566H297.112L296.841 96.525L290.69 84.478H261.521Z" fill="#073B4C"/>
<path d="M435 216.891H0V217.919H435V216.891Z" fill="#073B4C"/>
<path d="M225.311 96.3302C221.984 90.9488 214.22 89.6827 208.454 92.2498C202.687 94.8169 198.701 100.29 195.992 106.011C193.282 111.731 191.578 117.894 188.793 123.578C180.599 140.301 164.005 151.224 153.567 166.635C145.724 178.214 141.571 192.273 141.857 206.274C141.967 211.637 142.83 217.279 146.163 221.471C151.109 227.693 159.867 228.97 167.752 229.789C172.333 230.265 177.955 230.251 180.314 226.279C181.247 224.708 171.22 219.227 171.381 217.405C172.249 207.571 183.327 201.327 184.195 191.493C185.557 198.345 183.812 205.419 184.087 212.4C184.363 219.381 187.789 227.278 194.596 228.722C196.697 229.167 199.068 228.859 200.66 227.412C202.252 225.966 202.717 223.234 201.299 221.615C202.751 223.105 205.202 223.492 207.039 222.522C208.877 221.552 209.949 219.305 209.551 217.259C209.258 215.755 208.291 214.489 207.454 213.207C202.919 206.264 201.737 197.215 204.336 189.332C208.931 175.397 224.019 166.301 226.575 151.847C228.473 141.114 223.057 128.951 228.804 119.703C231.394 115.535 235.791 112.907 239.298 109.482C242.805 106.058 245.548 100.818 243.541 96.3374L225.614 96.3177" fill="#FFD166"/>
<path d="M170.028 219.351C169.582 219.351 169.125 219.231 168.683 218.993C167.665 218.445 166.898 217.362 166.728 216.232C166.444 214.354 167.335 212.53 168.051 211.065C170.009 207.056 171.944 202.77 172.23 198.317C172.541 193.455 170.577 188.948 167.227 186.835C164.737 185.265 161.412 184.861 157.865 185.699C154.724 186.44 151.902 187.957 148.802 189.716C148.556 189.856 148.244 189.769 148.105 189.521C147.966 189.275 148.052 188.961 148.298 188.821C151.352 187.089 154.363 185.47 157.631 184.698C161.446 183.797 165.047 184.247 167.771 185.964C171.435 188.275 173.586 193.15 173.251 198.383C172.954 203.024 170.973 207.416 168.97 211.517C168.283 212.924 167.504 214.518 167.74 216.078C167.861 216.886 168.435 217.693 169.166 218.087C169.523 218.28 170.067 218.452 170.631 218.189C170.888 218.068 171.192 218.18 171.311 218.437C171.431 218.695 171.32 219.001 171.064 219.12C170.735 219.274 170.385 219.351 170.028 219.351Z" fill="#FFC233"/>
<path d="M209.247 95.9775C208.577 97.8207 209.471 99.8865 210.71 101.404C211.949 102.921 213.54 104.141 214.632 105.768C216.921 109.179 216.578 113.842 214.819 117.557C213.061 121.271 210.096 124.248 207.188 127.144C207.403 125.902 206.778 124.648 205.926 123.723C205.073 122.797 204.001 122.11 203.048 121.289C198.609 117.468 197.221 110.505 199.852 105.263" fill="#FFC233"/>
<path d="M148.628 205.64C144.869 205.177 141.693 208.574 137.941 209.095C133.603 209.698 129.613 206.25 127.682 202.302C125.752 198.353 125.257 193.872 123.929 189.68C122.601 185.489 120.039 181.243 115.865 179.911C114.114 179.352 112.132 179.383 110.505 180.241C108.878 181.098 107.686 182.85 107.727 184.695C107.777 186.965 109.51 188.782 110.561 190.793C112.232 193.993 112.18 197.782 112.918 201.319C114.692 209.821 121.579 217.031 129.964 219.165C134.3 220.269 139.154 220.016 142.91 217.577C146.666 215.137 148.955 210.224 147.565 205.954" fill="#FFD166"/>
</svg>
