<svg width="404.7" height="171" viewBox="0 0 426 180" fill="none" xmlns="http://www.w3.org/2000/svg">
<path d="M55 78.0567C55 54.9147 73.7387 0 96.854 0C119.969 0 138.708 54.9147 138.708 78.0567C138.708 89.1698 134.298 99.8278 126.449 107.686C118.6 115.544 107.954 119.959 96.854 119.959C85.7536 119.959 75.1079 115.544 67.2587 107.686C59.4096 99.8278 55 89.1698 55 78.0567Z" fill="#118AB2"/>
<path d="M96.8539 180C96.7626 180 96.6751 179.964 96.6106 179.899C96.546 179.834 96.5098 179.747 96.5098 179.655V35.1904C96.5098 35.099 96.546 35.0114 96.6106 34.9467C96.6751 34.8821 96.7626 34.8458 96.8539 34.8458C96.9452 34.8458 97.0327 34.8821 97.0973 34.9467C97.1618 35.0114 97.1981 35.099 97.1981 35.1904V179.655C97.1981 179.747 97.1618 179.834 97.0973 179.899C97.0327 179.964 96.9452 180 96.8539 180Z" fill="#073B4C"/>
<path d="M96.8539 63.0804C96.8087 63.0805 96.7639 63.0716 96.7222 63.0542C96.6804 63.0369 96.6425 63.0115 96.6106 62.9794L80.0448 46.3947C80.0125 46.3628 79.9869 46.3248 79.9693 46.2829C79.9518 46.241 79.9426 46.196 79.9425 46.1506C79.9424 46.1052 79.9512 46.0602 79.9685 46.0182C79.9858 45.9762 80.0112 45.938 80.0433 45.9059C80.0754 45.8738 80.1135 45.8483 80.1555 45.831C80.1974 45.8137 80.2424 45.8048 80.2878 45.805C80.3332 45.8051 80.3781 45.8143 80.4199 45.8319C80.4617 45.8494 80.4997 45.8752 80.5316 45.9075L97.0973 62.4922C97.1454 62.5404 97.1782 62.6018 97.1915 62.6686C97.2047 62.7355 97.1979 62.8047 97.1719 62.8677C97.1458 62.9306 97.1017 62.9844 97.0451 63.0223C96.9885 63.0602 96.922 63.0804 96.8539 63.0804Z" fill="#073B4C"/>
<path d="M96.8539 91.7919C96.7858 91.7919 96.7193 91.7717 96.6627 91.7338C96.6061 91.696 96.562 91.6422 96.536 91.5792C96.5099 91.5163 96.5031 91.447 96.5164 91.3802C96.5296 91.3133 96.5624 91.252 96.6105 91.2038L124.353 63.4293C124.385 63.397 124.423 63.3713 124.465 63.3537C124.506 63.3361 124.551 63.327 124.597 63.3268C124.642 63.3267 124.687 63.3355 124.729 63.3528C124.771 63.3702 124.809 63.3956 124.841 63.4277C124.873 63.4599 124.899 63.498 124.916 63.54C124.933 63.582 124.942 63.627 124.942 63.6725C124.942 63.7179 124.933 63.7628 124.915 63.8047C124.898 63.8466 124.872 63.8846 124.84 63.9166L97.0973 91.691C97.0653 91.723 97.0274 91.7484 96.9856 91.7658C96.9439 91.7831 96.8991 91.792 96.8539 91.7919Z" fill="#073B4C"/>
<path d="M134.75 106.222C134.75 89.5929 148.225 50.1323 164.846 50.1323C181.468 50.1323 194.942 89.5928 194.942 106.222C194.937 114.21 191.763 121.868 186.12 127.514C180.476 133.161 172.825 136.332 164.846 136.332C156.868 136.332 149.216 133.161 143.573 127.514C137.929 121.868 134.756 114.21 134.75 106.222Z" fill="#FFD166"/>
<path d="M164.846 179.476C164.814 179.476 164.782 179.47 164.751 179.458C164.721 179.445 164.694 179.427 164.671 179.404C164.648 179.381 164.63 179.354 164.618 179.324C164.605 179.294 164.599 179.261 164.599 179.229V75.4193C164.599 75.3538 164.625 75.291 164.671 75.2447C164.718 75.1985 164.781 75.1725 164.846 75.1725C164.912 75.1725 164.974 75.1985 165.021 75.2447C165.067 75.291 165.093 75.3538 165.094 75.4193V179.229C165.094 179.261 165.087 179.294 165.075 179.324C165.062 179.354 165.044 179.381 165.021 179.404C164.998 179.427 164.971 179.445 164.941 179.458C164.911 179.47 164.879 179.476 164.846 179.476Z" fill="#073B4C"/>
<path d="M164.846 95.4605C164.814 95.4605 164.781 95.4542 164.751 95.4417C164.721 95.4293 164.694 95.411 164.671 95.388L152.759 83.4705C152.713 83.424 152.687 83.361 152.687 83.2954C152.687 83.2297 152.713 83.1667 152.759 83.1203C152.806 83.0738 152.869 83.0478 152.934 83.0478C153 83.0478 153.063 83.0739 153.109 83.1204L165.021 95.0379C165.056 95.0725 165.079 95.1166 165.089 95.1647C165.098 95.2127 165.093 95.2625 165.075 95.3077C165.056 95.353 165.024 95.3916 164.984 95.4188C164.943 95.446 164.895 95.4605 164.846 95.4605Z" fill="#073B4C"/>
<path d="M164.846 116.092C164.797 116.092 164.749 116.078 164.709 116.05C164.668 116.023 164.636 115.985 164.618 115.939C164.599 115.894 164.594 115.844 164.603 115.796C164.613 115.748 164.637 115.704 164.671 115.669L184.62 95.7113C184.643 95.6883 184.67 95.67 184.7 95.6576C184.73 95.6451 184.762 95.6387 184.795 95.6387C184.827 95.6387 184.859 95.645 184.889 95.6575C184.919 95.6699 184.947 95.6882 184.97 95.7111C184.993 95.7341 185.011 95.7614 185.023 95.7915C185.036 95.8215 185.042 95.8537 185.042 95.8862C185.042 95.9188 185.036 95.951 185.023 95.981C185.011 96.0111 184.993 96.0384 184.97 96.0614L165.021 116.02C164.998 116.043 164.971 116.061 164.941 116.073C164.911 116.086 164.879 116.092 164.846 116.092Z" fill="#073B4C"/>
<path d="M166.642 177.491C166.214 177.491 165.792 177.377 165.421 177.161C165.051 176.945 164.743 176.636 164.53 176.263C164.317 175.89 164.206 175.468 164.208 175.038C164.211 174.609 164.326 174.188 164.543 173.817L167.955 167.985L172.163 170.452L168.75 176.285C168.535 176.652 168.227 176.957 167.857 177.169C167.487 177.381 167.068 177.492 166.642 177.491Z" fill="#118AB2"/>
<path d="M180.033 164.161C181.69 164.161 183.033 162.816 183.033 161.157C183.033 159.498 181.69 158.153 180.033 158.153C178.375 158.153 177.032 159.498 177.032 161.157C177.032 162.816 178.375 164.161 180.033 164.161Z" fill="#118AB2"/>
<path d="M153.44 177.491C153.011 177.491 152.59 177.377 152.219 177.161C151.848 176.945 151.541 176.636 151.328 176.263C151.115 175.89 151.004 175.468 151.006 175.038C151.008 174.609 151.124 174.188 151.341 173.817L154.753 167.985L158.96 170.452L155.548 176.284C155.333 176.652 155.025 176.957 154.655 177.169C154.285 177.381 153.866 177.492 153.44 177.491Z" fill="#118AB2"/>
<path d="M173.086 173.593H157.967C155.909 173.59 153.937 172.771 152.482 171.314C151.027 169.858 150.208 167.883 150.206 165.823V163.523C150.207 162.808 150.491 162.122 150.996 161.616C151.502 161.111 152.187 160.826 152.901 160.825H173.086C174.777 160.825 176.399 161.498 177.595 162.695C178.791 163.892 179.463 165.516 179.463 167.209C179.463 168.902 178.791 170.526 177.595 171.723C176.399 172.92 174.777 173.593 173.086 173.593Z" fill="#073B4C"/>
<path d="M172.37 179.477C171.723 179.477 171.104 179.219 170.647 178.762C170.189 178.304 169.932 177.684 169.932 177.037V170.277H174.808V177.037C174.807 177.684 174.55 178.304 174.093 178.762C173.636 179.219 173.016 179.477 172.37 179.477Z" fill="#073B4C"/>
<path d="M158.221 179.477C157.574 179.477 156.954 179.219 156.497 178.762C156.04 178.304 155.783 177.684 155.783 177.037V170.277H160.659V177.037C160.658 177.684 160.401 178.304 159.944 178.762C159.487 179.219 158.867 179.477 158.221 179.477Z" fill="#073B4C"/>
<path d="M145.752 156.442L141.073 160.205L136.141 154.056C135.645 153.435 135.415 152.642 135.503 151.851C135.59 151.061 135.987 150.337 136.606 149.839C137.226 149.341 138.017 149.109 138.807 149.194C139.597 149.28 140.321 149.675 140.82 150.294L145.752 156.442Z" fill="#118AB2"/>
<path d="M152.369 165.451L144.63 171.674C144.183 172.033 143.611 172.2 143.041 172.137C142.47 172.075 141.948 171.789 141.588 171.341L138.333 167.283C137.19 165.856 136.66 164.033 136.858 162.215C137.057 160.397 137.967 158.732 139.39 157.585L140.625 156.592C141.821 155.633 143.348 155.188 144.871 155.354C146.394 155.521 147.789 156.285 148.75 157.48L152.701 162.406C153.06 162.854 153.226 163.426 153.164 163.997C153.102 164.568 152.816 165.091 152.369 165.451Z" fill="#073B4C"/>
<path d="M145.752 156.442L142.535 159.029L137.016 152.148C136.673 151.721 136.514 151.176 136.573 150.631C136.633 150.086 136.906 149.588 137.332 149.245C137.759 148.902 138.304 148.743 138.848 148.802C139.392 148.861 139.89 149.135 140.233 149.562L145.752 156.442Z" fill="#073B4C"/>
<path d="M151.898 165.747L143.417 172.566C142.796 173.063 142.004 173.293 141.214 173.205C140.425 173.118 139.702 172.721 139.204 172.101C138.707 171.48 138.475 170.688 138.56 169.897C138.646 169.106 139.041 168.381 139.659 167.882L148.14 161.063L151.898 165.747Z" fill="#073B4C"/>
<path d="M140.176 172.875C140.479 172.631 140.37 171.992 139.932 171.446C139.494 170.9 138.894 170.655 138.591 170.899C138.288 171.142 138.398 171.782 138.835 172.328C139.273 172.873 139.873 173.118 140.176 172.875Z" fill="#118AB2"/>
<path d="M116.111 175.493C116.111 176.453 115.73 177.373 115.052 178.052C114.375 178.73 113.455 179.111 112.497 179.111C110.501 179.111 110.432 177.302 111.981 175.493C110.432 174.46 110.501 171.876 112.497 171.876C113.455 171.876 114.375 172.257 115.052 172.935C115.73 173.614 116.111 174.534 116.111 175.493Z" fill="#06D6A0"/>
<path d="M126.435 175.493C126.435 176.453 126.816 177.373 127.494 178.052C128.171 178.73 129.091 179.111 130.049 179.111C132.045 179.111 132.114 177.302 130.565 175.493C132.114 174.46 132.045 171.876 130.049 171.876C129.091 171.876 128.171 172.257 127.494 172.935C126.816 173.614 126.435 174.534 126.435 175.493Z" fill="#06D6A0"/>
<path d="M128.5 173.685H114.046V177.302H128.5V173.685Z" fill="#06D6A0"/>
<path d="M425.431 180H0.569519C0.418473 180 0.273613 179.947 0.166808 179.854C0.0600023 179.76 0 179.633 0 179.5C0 179.367 0.0600023 179.24 0.166808 179.146C0.273613 179.053 0.418473 179 0.569519 179H425.431C425.582 179 425.726 179.053 425.833 179.146C425.94 179.24 426 179.367 426 179.5C426 179.633 425.94 179.76 425.833 179.854C425.726 179.947 425.582 180 425.431 180Z" fill="#073B4C"/>
<path d="M347.476 111.455C350.289 111.455 352.569 109.172 352.569 106.356C352.569 103.54 350.289 101.257 347.476 101.257C344.662 101.257 342.382 103.54 342.382 106.356C342.382 109.172 344.662 111.455 347.476 111.455Z" fill="#EF476F"/>
<path d="M347.146 134.943C347.048 134.637 347.016 134.313 347.051 133.993C347.086 133.674 347.189 133.365 347.352 133.087C347.515 132.81 347.735 132.57 347.997 132.384C348.259 132.197 348.557 132.068 348.872 132.005C348.972 131.986 349.073 131.973 349.175 131.968L354.54 123.347L349.639 118.682C349.452 118.504 349.302 118.291 349.197 118.054C349.093 117.817 349.037 117.562 349.031 117.304C349.026 117.045 349.072 116.788 349.166 116.547C349.261 116.307 349.402 116.087 349.581 115.901C349.761 115.715 349.976 115.567 350.213 115.465C350.45 115.362 350.706 115.308 350.964 115.305C351.222 115.302 351.479 115.35 351.718 115.447C351.958 115.544 352.176 115.687 352.36 115.869L359.127 122.549L359.14 122.565C359.35 122.884 359.451 123.262 359.429 123.643C359.406 124.024 359.262 124.387 359.017 124.68L351.5 133.581C351.522 133.652 351.541 133.725 351.556 133.798C351.618 134.114 351.614 134.439 351.542 134.753C351.471 135.067 351.334 135.362 351.141 135.619C350.947 135.876 350.702 136.089 350.421 136.245C350.139 136.4 349.828 136.494 349.508 136.521C349.443 136.527 349.379 136.53 349.314 136.53C348.832 136.528 348.363 136.373 347.973 136.088C347.584 135.804 347.295 135.403 347.146 134.943Z" fill="#EF476F"/>
<path d="M339.087 177.326H336.544L335.335 167.508L339.087 167.508L339.087 177.326Z" fill="#EF476F"/>
<path d="M339.839 179.897L331.433 179.897V179.689C331.433 179.256 331.519 178.827 331.684 178.427C331.85 178.027 332.092 177.663 332.398 177.357C332.704 177.051 333.067 176.808 333.467 176.642C333.867 176.476 334.295 176.391 334.728 176.391L339.839 176.391L339.839 179.897Z" fill="#073B4C"/>
<path d="M364.357 173.807L362.172 175.109L356.116 167.293L359.34 165.371L364.357 173.807Z" fill="#EF476F"/>
<path d="M359.095 179.936L358.989 179.757C358.542 179.006 358.411 178.107 358.626 177.259C358.841 176.411 359.383 175.683 360.134 175.236L364.525 172.618L366.317 175.631L359.095 179.936Z" fill="#073B4C"/>
<path d="M335.014 173.002C333.311 152.924 332.298 134.272 338.524 126.663L338.572 126.604L349.05 130.8L349.067 130.838C349.102 130.915 352.587 138.589 351.774 143.751L354.359 155.653L362.786 169.78C362.854 169.893 362.897 170.02 362.912 170.152C362.927 170.283 362.914 170.417 362.874 170.543C362.833 170.669 362.767 170.785 362.678 170.884C362.59 170.982 362.482 171.061 362.36 171.114L358.698 172.727C358.492 172.817 358.26 172.83 358.044 172.762C357.829 172.695 357.646 172.553 357.527 172.361L348.36 157.396L343.182 145.917C343.154 145.855 343.106 145.803 343.046 145.771C342.986 145.739 342.917 145.727 342.849 145.738C342.782 145.749 342.72 145.781 342.673 145.831C342.626 145.881 342.596 145.944 342.589 146.012L339.719 173.023C339.695 173.252 339.587 173.465 339.416 173.619C339.244 173.774 339.022 173.859 338.791 173.858H335.944C335.711 173.857 335.486 173.769 335.314 173.61C335.142 173.452 335.035 173.235 335.014 173.002Z" fill="#073B4C"/>
<path d="M338.559 126.822L338.509 126.798L338.501 126.744C338.11 124.001 338.573 120.954 339.878 117.686C340.521 116.087 341.717 114.772 343.247 113.982C344.778 113.191 346.541 112.978 348.215 113.379C349.18 113.617 350.085 114.053 350.872 114.66C351.66 115.266 352.313 116.029 352.79 116.901C353.261 117.765 353.549 118.717 353.633 119.697C353.718 120.677 353.598 121.664 353.282 122.595C351.637 127.412 349.503 131.919 349.481 131.964L349.436 132.058L338.559 126.822Z" fill="#118AB2"/>
<path d="M331.02 138.197C330.947 137.643 331.076 137.082 331.383 136.615C331.689 136.148 332.153 135.807 332.69 135.653L342.488 116.821C342.617 116.609 342.786 116.425 342.986 116.28C343.186 116.134 343.413 116.029 343.653 115.971C343.894 115.914 344.144 115.904 344.388 115.943C344.632 115.982 344.866 116.07 345.077 116.2C345.287 116.33 345.47 116.5 345.615 116.701C345.759 116.903 345.862 117.13 345.919 117.371C345.975 117.613 345.983 117.863 345.943 118.107C345.902 118.351 345.814 118.585 345.682 118.795L335.653 137.497C335.674 137.61 335.687 137.726 335.69 137.841C335.699 138.157 335.643 138.472 335.527 138.766C335.411 139.061 335.237 139.328 335.015 139.554C334.793 139.779 334.528 139.957 334.236 140.077C333.943 140.197 333.63 140.256 333.314 140.252C332.967 140.247 332.626 140.165 332.315 140.013C332.004 139.86 331.731 139.641 331.514 139.37C331.243 139.033 331.072 138.626 331.02 138.197Z" fill="#EF476F"/>
<path d="M341.3 103.476H349.388V99.9461C347.612 99.2401 345.875 98.6396 344.825 99.9461C343.89 99.9461 342.994 100.318 342.332 100.98C341.671 101.642 341.3 102.54 341.3 103.476Z" fill="#073B4C"/>
<path d="M349.835 99.3232C354.67 99.3232 356.024 105.391 356.024 108.814C356.024 110.723 355.161 111.406 353.806 111.637L353.328 109.081L352.207 111.746C351.826 111.748 351.426 111.741 351.012 111.733L350.632 110.95L349.784 111.719C346.39 111.724 343.647 112.22 343.647 108.814C343.647 105.391 344.834 99.3232 349.835 99.3232Z" fill="#073B4C"/>
</svg>
