<svg width="448" height="240" viewBox="0 0 656 448" fill="none" xmlns="http://www.w3.org/2000/svg">
<g clip-path="url(#clip0_1_2)">
<path d="M108.401 315.946C105.241 316.286 101.792 316.797 98.1243 317.543C82.5718 320.71 82.249 331.271 82.3853 333.692L82.2797 333.626C80.7159 336.135 79.7364 338.673 79.1445 341.069L78.4323 308.703C78.8928 307.743 79.3118 306.654 79.6612 305.538C80.8254 309.123 82.7337 312.51 84.3788 312.285C86.5179 311.994 87.4505 305.7 87.0514 301.227C89.7716 304.73 94.3495 308.476 96.0765 307.321C97.4566 306.398 96.6383 302.598 95.1316 299.142C98.2709 301.034 101.748 302.277 102.827 301.076C104.299 299.437 100.771 293.845 97.5176 290.723C101.873 291.13 107.411 290.436 107.774 288.454C108.074 286.821 104.777 284.76 101.249 283.434C104.793 282.499 108.107 280.871 107.997 279.26C107.866 277.347 102.946 276.065 98.7017 275.87C101.903 273.365 104.845 269.903 103.945 268.337C103.118 266.897 99.2709 267.455 95.7212 268.723C97.8219 265.719 99.2987 262.335 98.174 261.177C96.7729 259.735 91.8004 262.225 88.4069 264.977C89.0675 260.689 88.7335 255.276 86.8103 254.787C85.2013 254.377 82.921 257.526 81.3576 260.955C80.6666 257.356 79.2678 253.939 77.6534 253.939C75.3536 253.939 73.4892 260.873 73.4892 265.39C73.4892 265.646 73.496 265.886 73.5076 266.116C73.2768 265.848 73.0123 265.569 72.7106 265.276C69.4698 262.128 63.1967 258.635 61.5944 260.285C60.4697 261.443 61.9465 264.827 64.0472 267.83C60.4975 266.562 56.6502 266.005 55.8231 267.444C54.7119 269.379 59.462 274.208 63.323 276.549C63.0909 276.521 62.8471 276.498 62.5876 276.48C58.0805 276.173 51.0357 277.561 50.8792 279.855C50.7692 281.466 54.0832 283.094 57.6271 284.028C54.0988 285.355 50.8024 287.415 51.1016 289.049C51.4648 291.031 57.0035 291.724 61.3585 291.318C58.105 294.44 54.5772 300.032 56.0494 301.671C57.1283 302.872 60.6051 301.629 63.7444 299.737C62.2378 303.192 61.4195 306.993 62.7995 307.916C64.6233 309.136 69.6249 304.89 72.262 301.237C71.9933 305.706 73.0628 311.847 75.1848 312.089C76.0723 312.19 77.0126 311.244 77.8613 309.787L75.4577 344.577C74.8959 348.628 78.4897 351.272 78.8109 352.941L79.3293 376.5C78.7442 374.822 77.9561 373.105 76.8938 371.401L76.7882 371.467C76.9244 369.046 76.6014 358.485 61.0492 355.319C57.3812 354.572 53.933 354.061 50.772 353.721C47.0409 353.32 45.5854 358.427 48.9561 360.077C53.8375 362.466 58.4294 365.476 60.8228 369.041C66.9418 378.155 75.3964 372.886 76.5985 372.068C77.9412 374.304 78.8216 376.555 79.3777 378.698L79.653 391.209C79.5855 391.505 79.5388 391.671 79.5352 391.683L79.6642 391.721L80.3305 422L86.5111 421.95L84.3004 391.001C84.6719 389.331 85.8147 383.644 84.3004 377.737L82.0897 353.419C82.2152 354.058 82.0842 353.401 82.0897 353.419L79.206 343.864C79.6253 340.908 80.5985 337.583 82.575 334.293C83.777 335.111 92.2317 340.38 98.3507 331.266C100.744 327.701 105.336 324.691 110.217 322.302C113.588 320.652 112.133 315.545 108.401 315.946ZM80.1681 387.585L80.0516 382.289C80.2866 384.291 80.2747 386.099 80.1681 387.585Z" fill="#F2F2F2"/>
<path d="M581.401 315.946C578.241 316.286 574.792 316.797 571.124 317.543C555.572 320.71 555.249 331.271 555.385 333.692L555.28 333.626C553.716 336.135 552.736 338.673 552.144 341.069L551.432 308.703C551.893 307.743 552.312 306.654 552.661 305.538C553.825 309.123 555.734 312.51 557.379 312.285C559.518 311.994 560.45 305.7 560.051 301.227C562.772 304.73 567.35 308.476 569.077 307.321C570.457 306.398 569.638 302.598 568.132 299.142C571.271 301.034 574.748 302.277 575.827 301.076C577.299 299.437 573.771 293.845 570.518 290.723C574.873 291.13 580.411 290.436 580.774 288.454C581.074 286.821 577.777 284.76 574.249 283.434C577.793 282.499 581.107 280.871 580.997 279.26C580.866 277.347 575.946 276.065 571.702 275.87C574.903 273.365 577.845 269.903 576.945 268.337C576.118 266.897 572.271 267.455 568.721 268.723C570.822 265.719 572.299 262.335 571.174 261.177C569.773 259.735 564.8 262.225 561.407 264.977C562.067 260.689 561.734 255.276 559.81 254.787C558.201 254.377 555.921 257.526 554.358 260.955C553.667 257.356 552.268 253.939 550.653 253.939C548.354 253.939 546.489 260.873 546.489 265.39C546.489 265.646 546.496 265.886 546.508 266.116C546.277 265.848 546.012 265.569 545.711 265.276C542.47 262.128 536.197 258.635 534.594 260.285C533.47 261.443 534.947 264.827 537.047 267.83C533.497 266.562 529.65 266.005 528.823 267.444C527.712 269.379 532.462 274.208 536.323 276.549C536.091 276.521 535.847 276.498 535.587 276.48C531.08 276.173 524.036 277.561 523.879 279.855C523.769 281.466 527.083 283.094 530.627 284.028C527.099 285.355 523.802 287.415 524.102 289.049C524.465 291.031 530.003 291.724 534.358 291.318C531.105 294.44 527.577 300.032 529.049 301.671C530.128 302.872 533.605 301.629 536.744 299.737C535.238 303.192 534.419 306.993 535.799 307.916C537.623 309.136 542.625 304.89 545.262 301.237C544.993 305.706 546.063 311.847 548.185 312.089C549.072 312.19 550.013 311.244 550.861 309.787L548.458 344.577C547.896 348.628 551.49 351.272 551.811 352.941L552.329 376.5C551.744 374.822 550.956 373.105 549.894 371.401L549.788 371.467C549.924 369.046 549.601 358.485 534.049 355.319C530.381 354.572 526.933 354.061 523.772 353.721C520.041 353.32 518.585 358.427 521.956 360.077C526.837 362.466 531.429 365.476 533.823 369.041C539.942 378.155 548.396 372.886 549.598 372.068C550.941 374.304 551.822 376.555 552.378 378.698L552.653 391.209C552.585 391.505 552.539 391.671 552.535 391.683L552.664 391.721L553.33 422L559.511 421.95L557.3 391.001C557.672 389.331 558.815 383.644 557.3 377.737L555.09 353.419C555.215 354.058 555.084 353.401 555.09 353.419L552.206 343.864C552.625 340.908 553.598 337.583 555.575 334.293C556.777 335.111 565.232 340.38 571.351 331.266C573.744 327.701 578.336 324.691 583.217 322.302C586.588 320.652 585.133 315.545 581.401 315.946ZM553.168 387.585L553.052 382.289C553.287 384.291 553.275 386.099 553.168 387.585Z" fill="#F2F2F2"/>
<path d="M485.443 216.857L482.545 147.764C482.545 147.764 479.289 106.745 476.685 92.4205C474.081 78.0964 456.501 82.0029 456.501 82.0029L458.454 123.022L466.882 165L473.441 222.162C473.104 223.816 472.912 225.613 472.912 227.5C472.912 235.508 476.256 242 480.382 242C484.507 242 487.852 235.508 487.852 227.5C487.852 223.287 486.921 219.506 485.443 216.857Z" fill="#FFB6B6"/>
<path d="M344.367 198.954C347.448 195.284 351.139 192.789 354.454 191.829L393.434 147.764C393.434 147.764 396.69 106.745 399.294 92.4206C401.899 78.0964 419.478 82.003 419.478 82.003L417.525 123.022L406.456 167.297L360.843 206.022C360.046 207.473 359.07 208.924 357.9 210.317C352.351 216.927 344.823 219.741 341.086 216.603C337.348 213.466 338.817 205.564 344.367 198.954Z" fill="#FFB6B6"/>
<path d="M430.131 76.4686L434.653 59.0852L452.269 58.2378L457.539 82.2003L430.131 76.4686Z" fill="#FFB6B6"/>
<path opacity="0.1" d="M430.131 76.4686L434.653 59.0852L452.269 58.2378L457.539 82.2003L430.131 76.4686Z" fill="black"/>
<path d="M385.149 361.257L368.65 360.314L370.814 410.949L381.994 411.589L385.149 361.257Z" fill="#FFB6B6"/>
<path d="M369.384 394.939L375.113 397.553L375.106 401.025C375.106 401.025 376.488 397.006 383.907 396.129L384.793 399.496C384.793 399.496 387.67 402.799 387.176 408.773L385.288 424.77L379.693 424.642L378.789 413.51C378.789 413.51 377.248 410.984 370.149 422.987C370.149 422.987 362.328 424.958 350.217 420.897C348.553 420.339 347.397 418.785 347.418 417.03C347.43 416.061 347.809 415.166 349.024 414.844C352.116 414.027 355.136 415.063 357.133 412.595C359.129 410.127 369.384 394.939 369.384 394.939Z" fill="#7C7B8F"/>
<path d="M473.698 361.257L457.199 360.314L459.364 410.949L470.544 411.589L473.698 361.257Z" fill="#FFB6B6"/>
<path d="M457.934 394.939L463.663 397.553L463.655 401.025C463.655 401.025 465.038 397.006 472.457 396.129L473.342 399.496C473.342 399.496 476.22 402.799 475.726 408.773L473.838 424.77L468.242 424.642L467.339 413.51C467.339 413.51 465.797 410.984 458.698 422.987C458.698 422.987 450.878 424.958 438.767 420.897C437.102 420.339 435.946 418.785 435.968 417.03C435.98 416.061 436.359 415.166 437.573 414.844C440.666 414.027 443.685 415.063 445.682 412.595C447.679 410.127 457.934 394.939 457.934 394.939Z" fill="#7C7B8F"/>
<path d="M443.675 69.3223C454.463 69.3223 463.208 60.5771 463.208 49.7893C463.208 39.0016 454.463 30.2563 443.675 30.2563C432.887 30.2563 424.142 39.0016 424.142 49.7893C424.142 60.5771 432.887 69.3223 443.675 69.3223Z" fill="#FFB6B6"/>
<path d="M454.752 53.0364C454.752 53.0364 446.164 38.9845 437.567 40.5354C428.971 42.0864 424.489 43.4867 424.489 43.4867C424.489 43.4867 420.989 32.2831 432.742 26.9079C432.742 26.9079 416.109 12.982 433.836 4.04482C451.563 -4.89236 462.593 3.76921 462.593 3.76921C462.593 3.76921 477.265 16.2121 460.998 27.7275C460.998 27.7275 475.078 43.7654 460.857 59.0852C460.857 59.0852 463.368 47.42 459.953 49.8114C456.538 52.2028 454.752 53.0364 454.752 53.0364Z" fill="#2F2E41"/>
<path d="M456.826 77.7708L430.131 74.5153L409.622 91.1184C409.622 91.1184 399.421 119.539 407.017 136.695C407.199 137.106 407.343 165.669 407.343 165.669H464.06C464.06 165.669 464.005 146.228 466.172 139.187C466.482 138.181 466.837 137.428 467.244 137.021C470.499 133.765 478.313 112.93 474.406 103.815C470.499 94.6994 456.826 77.7708 456.826 77.7708Z" fill="#DDBEA9"/>
<path d="M407.017 164.367L371.207 278.309L363.394 368.161H385.205L403.762 284.82L429.316 236.578L454.548 374.672H476.564L476.034 187.807L464.014 164.367H407.017Z" fill="#7C7B8F"/>
<path d="M656 422.157H0V424.157H656V422.157Z" fill="#DDBEA9"/>
<path d="M336.264 187.428C329.761 176.957 314.591 174.494 303.324 179.489C292.056 184.483 284.267 195.133 278.973 206.263C273.678 217.393 270.348 229.384 264.906 240.443C248.894 272.981 216.47 294.233 196.073 324.218C180.748 346.747 172.633 374.102 173.192 401.344C173.406 411.778 175.094 422.756 181.606 430.912C191.271 443.018 208.383 445.501 223.792 447.095C232.743 448.021 243.729 447.995 248.338 440.267C250.162 437.21 230.568 426.546 230.882 423C232.578 403.867 254.226 391.717 255.922 372.585C258.582 385.916 255.173 399.679 255.711 413.262C256.249 426.846 262.945 442.21 276.245 445.019C280.35 445.885 284.984 445.286 288.095 442.472C291.206 439.657 292.114 434.341 289.343 431.192C292.181 434.09 296.969 434.843 300.56 432.956C304.15 431.069 306.245 426.697 305.467 422.716C304.895 419.789 303.005 417.327 301.37 414.833C292.508 401.323 290.199 383.718 295.278 368.379C304.256 341.266 333.738 323.568 338.732 295.446C342.441 274.562 331.859 250.898 343.088 232.903C348.149 224.793 356.741 219.681 363.594 213.018C370.447 206.354 375.807 196.159 371.885 187.442L336.855 187.403" fill="#B7B7A4"/>
<path d="M228.238 426.786C227.367 426.786 226.473 426.553 225.61 426.091C223.621 425.024 222.122 422.916 221.789 420.719C221.236 417.064 222.977 413.515 224.376 410.664C228.201 402.865 231.983 394.526 232.541 385.861C233.15 376.401 229.312 367.632 222.765 363.52C217.899 360.466 211.403 359.68 204.473 361.31C198.335 362.753 192.821 365.704 186.762 369.127C186.281 369.399 185.671 369.229 185.4 368.748C185.128 368.267 185.298 367.657 185.778 367.386C191.745 364.014 197.629 360.865 204.015 359.363C211.47 357.611 218.506 358.485 223.829 361.827C230.989 366.323 235.192 375.807 234.537 385.99C233.956 395.02 230.085 403.566 226.171 411.545C224.829 414.282 223.307 417.384 223.767 420.419C224.005 421.991 225.125 423.561 226.555 424.328C227.252 424.702 228.314 425.038 229.417 424.525C229.919 424.291 230.513 424.509 230.746 425.009C230.979 425.51 230.763 426.105 230.262 426.338C229.619 426.637 228.936 426.786 228.238 426.786Z" fill="#A5A58D"/>
<path d="M304.873 186.741C303.564 190.328 305.311 194.347 307.732 197.299C310.153 200.251 313.263 202.625 315.396 205.791C319.869 212.427 319.198 221.5 315.762 228.728C312.325 235.955 306.532 241.746 300.851 247.382C301.271 244.965 300.049 242.525 298.384 240.724C296.718 238.923 294.622 237.587 292.76 235.99C284.087 228.556 281.374 215.008 286.515 204.807" fill="#A5A58D"/>
<path d="M186.422 400.109C179.076 399.209 172.871 405.818 165.54 406.832C157.063 408.004 149.266 401.296 145.494 393.614C141.723 385.932 140.755 377.212 138.16 369.057C135.565 360.901 130.559 352.641 122.402 350.049C118.98 348.962 115.109 349.021 111.93 350.69C108.751 352.359 106.421 355.767 106.501 359.357C106.599 363.774 109.986 367.309 112.038 371.222C115.303 377.448 115.202 384.821 116.644 391.701C120.112 408.244 133.568 422.272 149.952 426.425C158.425 428.573 167.909 428.081 175.249 423.334C182.588 418.588 187.062 409.028 184.345 400.72" fill="#B7B7A4"/>
</g>
<defs>
<clipPath id="clip0_1_2">
<rect width="656" height="447.506" fill="white"/>
</clipPath>
</defs>
</svg>
