<svg width="428" height="220" viewBox="0 0 850 448" fill="none" xmlns="http://www.w3.org/2000/svg">
<path d="M212.401 315.946C209.241 316.286 205.792 316.797 202.124 317.543C186.572 320.71 186.249 331.271 186.385 333.692L186.28 333.626C184.716 336.135 183.736 338.673 183.145 341.069L182.432 308.703C182.893 307.743 183.312 306.654 183.661 305.538C184.825 309.123 186.734 312.51 188.379 312.285C190.518 311.994 191.45 305.7 191.051 301.227C193.772 304.73 198.35 308.476 200.077 307.321C201.457 306.398 200.638 302.598 199.132 299.142C202.271 301.034 205.748 302.277 206.827 301.076C208.299 299.437 204.771 293.845 201.518 290.723C205.873 291.13 211.411 290.436 211.774 288.454C212.074 286.821 208.777 284.76 205.249 283.434C208.793 282.499 212.107 280.871 211.997 279.26C211.866 277.347 206.946 276.065 202.702 275.87C205.903 273.365 208.845 269.903 207.945 268.337C207.118 266.897 203.271 267.455 199.721 268.723C201.822 265.719 203.299 262.335 202.174 261.177C200.773 259.735 195.8 262.225 192.407 264.977C193.067 260.689 192.734 255.276 190.81 254.787C189.201 254.377 186.921 257.526 185.358 260.955C184.667 257.356 183.268 253.939 181.653 253.939C179.354 253.939 177.489 260.873 177.489 265.39C177.489 265.646 177.496 265.886 177.508 266.116C177.277 265.848 177.012 265.569 176.711 265.276C173.47 262.128 167.197 258.635 165.594 260.285C164.47 261.443 165.947 264.827 168.047 267.83C164.498 266.562 160.65 266.005 159.823 267.444C158.712 269.379 163.462 274.208 167.323 276.549C167.091 276.521 166.847 276.498 166.588 276.48C162.081 276.173 155.036 277.561 154.879 279.855C154.769 281.466 158.083 283.094 161.627 284.028C158.099 285.355 154.802 287.415 155.102 289.049C155.465 291.031 161.004 291.724 165.358 291.318C162.105 294.44 158.577 300.032 160.049 301.671C161.128 302.872 164.605 301.629 167.744 299.737C166.238 303.192 165.42 306.993 166.8 307.916C168.623 309.136 173.625 304.89 176.262 301.237C175.993 305.706 177.063 311.847 179.185 312.089C180.072 312.19 181.013 311.244 181.861 309.787L179.458 344.577C178.896 348.628 182.49 351.272 182.811 352.941L183.329 376.5C182.744 374.822 181.956 373.105 180.894 371.401L180.788 371.467C180.924 369.046 180.601 358.485 165.049 355.319C161.381 354.572 157.933 354.061 154.772 353.721C151.041 353.32 149.585 358.427 152.956 360.077C157.838 362.466 162.429 365.476 164.823 369.041C170.942 378.155 179.396 372.886 180.599 372.068C181.941 374.304 182.822 376.555 183.378 378.698L183.653 391.209C183.586 391.505 183.539 391.671 183.535 391.683L183.664 391.721L184.331 422L190.511 421.95L188.3 391.001C188.672 389.331 189.815 383.644 188.3 377.737L186.09 353.419C186.215 354.058 186.084 353.401 186.09 353.419L183.206 343.864C183.625 340.908 184.599 337.583 186.575 334.293C187.777 335.111 196.232 340.38 202.351 331.266C204.744 327.701 209.336 324.691 214.217 322.302C217.588 320.652 216.133 315.545 212.401 315.946ZM184.168 387.585L184.052 382.289C184.287 384.291 184.275 386.099 184.168 387.585Z" fill="#F2F2F2"/>
<path d="M685.401 315.946C682.241 316.286 678.792 316.797 675.124 317.543C659.572 320.71 659.249 331.271 659.385 333.692L659.28 333.626C657.716 336.135 656.736 338.673 656.144 341.069L655.432 308.703C655.893 307.743 656.312 306.654 656.661 305.538C657.825 309.123 659.734 312.51 661.379 312.285C663.518 311.994 664.45 305.7 664.051 301.227C666.772 304.73 671.35 308.476 673.077 307.321C674.457 306.398 673.638 302.598 672.132 299.142C675.271 301.034 678.748 302.277 679.827 301.076C681.299 299.437 677.771 293.845 674.518 290.723C678.873 291.13 684.411 290.436 684.774 288.454C685.074 286.821 681.777 284.76 678.249 283.434C681.793 282.499 685.107 280.871 684.997 279.26C684.866 277.347 679.946 276.065 675.702 275.87C678.903 273.365 681.845 269.903 680.945 268.337C680.118 266.897 676.271 267.455 672.721 268.723C674.822 265.719 676.299 262.335 675.174 261.177C673.773 259.735 668.8 262.225 665.407 264.977C666.067 260.689 665.734 255.276 663.81 254.787C662.201 254.377 659.921 257.526 658.358 260.955C657.667 257.356 656.268 253.939 654.653 253.939C652.354 253.939 650.489 260.873 650.489 265.39C650.489 265.646 650.496 265.886 650.508 266.116C650.277 265.848 650.012 265.569 649.711 265.276C646.47 262.128 640.197 258.635 638.594 260.285C637.47 261.443 638.947 264.827 641.047 267.83C637.497 266.562 633.65 266.005 632.823 267.444C631.712 269.379 636.462 274.208 640.323 276.549C640.091 276.521 639.847 276.498 639.587 276.48C635.08 276.173 628.036 277.561 627.879 279.855C627.769 281.466 631.083 283.094 634.627 284.028C631.099 285.355 627.802 287.415 628.102 289.049C628.465 291.031 634.003 291.724 638.358 291.318C635.105 294.44 631.577 300.032 633.049 301.671C634.128 302.872 637.605 301.629 640.744 299.737C639.238 303.192 638.419 306.993 639.799 307.916C641.623 309.136 646.625 304.89 649.262 301.237C648.993 305.706 650.063 311.847 652.185 312.089C653.072 312.19 654.013 311.244 654.861 309.787L652.458 344.577C651.896 348.628 655.49 351.272 655.811 352.941L656.329 376.5C655.744 374.822 654.956 373.105 653.894 371.401L653.788 371.467C653.924 369.046 653.601 358.485 638.049 355.319C634.381 354.572 630.933 354.061 627.772 353.721C624.041 353.32 622.585 358.427 625.956 360.077C630.837 362.466 635.429 365.476 637.823 369.041C643.942 378.155 652.396 372.886 653.598 372.068C654.941 374.304 655.822 376.555 656.378 378.698L656.653 391.209C656.585 391.505 656.539 391.671 656.535 391.683L656.664 391.721L657.33 422L663.511 421.95L661.3 391.001C661.672 389.331 662.815 383.644 661.3 377.737L659.09 353.419C659.215 354.058 659.084 353.401 659.09 353.419L656.206 343.864C656.625 340.908 657.598 337.583 659.575 334.293C660.777 335.111 669.232 340.38 675.351 331.266C677.744 327.701 682.336 324.691 687.217 322.302C690.588 320.652 689.133 315.545 685.401 315.946ZM657.168 387.585L657.052 382.289C657.287 384.291 657.275 386.099 657.168 387.585Z" fill="#F2F2F2"/>
<path d="M589.443 216.857L586.545 147.764C586.545 147.764 583.289 106.745 580.685 92.4205C578.081 78.0964 560.501 82.0029 560.501 82.0029L562.454 123.022L570.882 165L577.441 222.162C577.104 223.816 576.912 225.613 576.912 227.5C576.912 235.508 580.256 242 584.382 242C588.507 242 591.852 235.508 591.852 227.5C591.852 223.287 590.921 219.506 589.443 216.857Z" fill="#FFB6B6"/>
<path d="M448.367 198.954C451.448 195.284 455.139 192.789 458.454 191.829L497.434 147.764C497.434 147.764 500.69 106.745 503.294 92.4206C505.899 78.0964 523.478 82.003 523.478 82.003L521.525 123.022L510.456 167.297L464.843 206.022C464.046 207.473 463.07 208.924 461.9 210.317C456.351 216.927 448.823 219.741 445.086 216.603C441.348 213.466 442.817 205.564 448.367 198.954Z" fill="#FFB6B6"/>
<path d="M534.131 76.4686L538.653 59.0852L556.269 58.2378L561.539 82.2003L534.131 76.4686Z" fill="#FFB6B6"/>
<path opacity="0.1" d="M534.131 76.4686L538.653 59.0852L556.269 58.2378L561.539 82.2003L534.131 76.4686Z" fill="black"/>
<path d="M489.149 361.257L472.65 360.314L474.814 410.949L485.994 411.589L489.149 361.257Z" fill="#FFB6B6"/>
<path d="M473.384 394.939L479.113 397.553L479.106 401.025C479.106 401.025 480.488 397.006 487.907 396.129L488.793 399.496C488.793 399.496 491.67 402.799 491.176 408.773L489.288 424.77L483.693 424.642L482.789 413.51C482.789 413.51 481.248 410.984 474.149 422.987C474.149 422.987 466.328 424.958 454.217 420.897C452.553 420.339 451.397 418.785 451.418 417.03C451.43 416.061 451.809 415.166 453.024 414.844C456.116 414.027 459.136 415.063 461.133 412.595C463.129 410.127 473.384 394.939 473.384 394.939Z" fill="#A5A4BC"/>
<path d="M577.698 361.257L561.199 360.314L563.364 410.949L574.544 411.589L577.698 361.257Z" fill="#FFB6B6"/>
<path d="M561.934 394.939L567.663 397.553L567.656 401.025C567.656 401.025 569.038 397.006 576.457 396.129L577.342 399.496C577.342 399.496 580.22 402.799 579.726 408.773L577.838 424.77L572.243 424.642L571.339 413.51C571.339 413.51 569.798 410.984 562.698 422.987C562.698 422.987 554.878 424.958 542.767 420.897C541.102 420.339 539.946 418.785 539.968 417.03C539.98 416.061 540.359 415.166 541.573 414.844C544.666 414.027 547.685 415.063 549.682 412.595C551.679 410.127 561.934 394.939 561.934 394.939Z" fill="#A5A4BC"/>
<path d="M547.675 69.3223C558.463 69.3223 567.208 60.5771 567.208 49.7893C567.208 39.0016 558.463 30.2563 547.675 30.2563C536.887 30.2563 528.142 39.0016 528.142 49.7893C528.142 60.5771 536.887 69.3223 547.675 69.3223Z" fill="#FFB6B6"/>
<path d="M558.752 53.0364C558.752 53.0364 550.164 38.9845 541.567 40.5354C532.971 42.0864 528.489 43.4867 528.489 43.4867C528.489 43.4867 524.989 32.2831 536.742 26.9079C536.742 26.9079 520.109 12.982 537.836 4.04482C555.562 -4.89236 566.593 3.76921 566.593 3.76921C566.593 3.76921 581.265 16.2121 564.998 27.7275C564.998 27.7275 579.078 43.7654 564.857 59.0852C564.857 59.0852 567.368 47.42 563.953 49.8114C560.538 52.2028 558.752 53.0364 558.752 53.0364Z" fill="#2F2E41"/>
<path d="M560.826 77.7708L534.131 74.5153L513.622 91.1184C513.622 91.1184 503.421 119.539 511.017 136.695C511.199 137.106 511.343 165.669 511.343 165.669H568.06C568.06 165.669 568.005 146.228 570.172 139.187C570.482 138.181 570.837 137.428 571.244 137.021C574.499 133.765 582.313 112.93 578.406 103.815C574.499 94.6994 560.826 77.7708 560.826 77.7708Z" fill="#DDBEA9"/>
<path d="M511.017 164.367L475.207 278.309L467.394 368.161H489.205L507.762 284.82L533.316 236.578L558.548 374.672H580.564L580.034 187.807L568.014 164.367H511.017Z" fill="#A5A4BC"/>
<path d="M850 422H0V424H850V422Z" fill="#DDBEA9"/>
<path d="M440.264 187.428C433.761 176.957 418.591 174.494 407.324 179.489C396.056 184.483 388.267 195.133 382.973 206.263C377.678 217.393 374.348 229.384 368.906 240.443C352.894 272.981 320.47 294.233 300.073 324.218C284.748 346.747 276.633 374.102 277.192 401.344C277.406 411.778 279.094 422.756 285.606 430.912C295.271 443.018 312.383 445.501 327.792 447.095C336.743 448.021 347.729 447.995 352.338 440.267C354.162 437.21 334.568 426.546 334.882 423C336.578 403.867 358.226 391.717 359.922 372.585C362.582 385.916 359.173 399.679 359.711 413.262C360.249 426.846 366.945 442.21 380.245 445.019C384.35 445.885 388.984 445.286 392.095 442.472C395.206 439.657 396.114 434.341 393.343 431.192C396.181 434.09 400.969 434.843 404.56 432.956C408.15 431.069 410.245 426.697 409.467 422.716C408.895 419.789 407.005 417.327 405.37 414.833C396.508 401.323 394.199 383.718 399.278 368.379C408.256 341.266 437.738 323.568 442.732 295.446C446.441 274.562 435.859 250.898 447.088 232.903C452.149 224.793 460.741 219.681 467.594 213.018C474.447 206.354 479.807 196.159 475.885 187.442L440.855 187.403" fill="#B7B7A4"/>
<path d="M332.238 426.786C331.367 426.786 330.473 426.553 329.61 426.091C327.621 425.024 326.122 422.916 325.789 420.719C325.236 417.064 326.977 413.515 328.376 410.664C332.201 402.865 335.983 394.526 336.541 385.861C337.15 376.401 333.312 367.632 326.765 363.52C321.899 360.466 315.403 359.68 308.473 361.31C302.335 362.753 296.821 365.704 290.762 369.127C290.281 369.399 289.671 369.229 289.4 368.748C289.128 368.267 289.298 367.657 289.778 367.386C295.745 364.014 301.629 360.865 308.015 359.363C315.47 357.611 322.506 358.485 327.829 361.827C334.989 366.323 339.192 375.807 338.537 385.99C337.956 395.02 334.085 403.566 330.171 411.545C328.829 414.282 327.307 417.384 327.767 420.419C328.005 421.991 329.125 423.561 330.555 424.328C331.252 424.702 332.314 425.038 333.417 424.525C333.919 424.291 334.513 424.509 334.746 425.009C334.979 425.51 334.763 426.105 334.262 426.338C333.619 426.637 332.936 426.786 332.238 426.786Z" fill="#A5A58D"/>
<path d="M408.873 186.741C407.564 190.328 409.311 194.347 411.732 197.299C414.153 200.251 417.263 202.625 419.396 205.791C423.869 212.427 423.198 221.5 419.762 228.728C416.325 235.955 410.532 241.746 404.851 247.382C405.271 244.965 404.049 242.525 402.384 240.724C400.718 238.923 398.622 237.587 396.76 235.99C388.087 228.556 385.374 215.008 390.515 204.807" fill="#A5A58D"/>
<path d="M290.422 400.109C283.076 399.209 276.871 405.818 269.54 406.832C261.063 408.004 253.266 401.296 249.494 393.614C245.723 385.932 244.755 377.212 242.16 369.057C239.565 360.901 234.559 352.641 226.402 350.049C222.98 348.962 219.109 349.021 215.93 350.69C212.751 352.359 210.421 355.767 210.501 359.357C210.599 363.774 213.986 367.309 216.038 371.222C219.303 377.448 219.202 384.821 220.644 391.701C224.112 408.244 237.568 422.272 253.952 426.425C262.425 428.573 271.909 428.081 279.249 423.334C286.588 418.588 291.062 409.028 288.345 400.72" fill="#B7B7A4"/>
</svg>
