<svg width="237" height="153" viewBox="0 0 237 153" fill="none" xmlns="http://www.w3.org/2000/svg">
<path d="M132.753 97.6856C142.082 97.6856 149.625 105.294 149.625 114.623C149.625 123.952 142.082 131.561 132.753 131.561H126.269V144H111.78V97.6856H132.753ZM130.636 118.726C132.886 118.726 134.738 116.873 134.738 114.623C134.738 112.374 132.886 110.521 130.636 110.521H126.269V118.726H130.636ZM185.704 144H152.292V97.6856H184.844V110.521H166.782V114.16H181.867V126.93H166.782V131.23H185.704V144ZM186.867 97.6856H222.595V110.521H211.943V144H197.453V110.521H186.867V97.6856Z" fill="#073B4C"/>
<path d="M55.7323 62.1529V73.5991C55.7323 77.5028 54.6737 81.1418 52.5565 84.1191L56.1293 90.6693L44.8815 96.7563L41.7719 91.0663C39.7208 91.5956 37.4051 91.8602 34.8909 91.8602C21.1289 91.8602 14.1155 83.5237 14.1155 73.5991V62.1529C14.1155 52.2283 21.1289 43.8918 34.8909 43.8918C48.719 43.8918 55.7323 52.2283 55.7323 62.1529ZM34.8909 79.0907C40.3824 79.0907 40.8456 74.4593 40.8456 73.5991V62.1529C40.8456 61.2927 40.3824 56.6613 34.8909 56.6613C29.4655 56.6613 29.0023 61.2927 29.0023 62.1529V73.5991C29.0023 74.4593 29.4655 79.0907 34.8909 79.0907ZM98.661 76.378C98.661 86.8318 89.3982 91.8602 79.0105 91.8602H78.9443C68.5567 91.8602 59.36 86.8318 59.36 76.378V44.6857H73.8497V74.7239C73.8497 78.1644 76.364 79.0907 79.0105 79.0907C81.5909 79.0907 84.1051 78.1644 84.1051 74.7239V44.6857H98.661V76.378ZM136.395 91.0001H102.983V44.6857H135.535V57.5214H117.473V61.1604H132.558V73.93H117.473V78.2306H136.395V91.0001ZM163.428 91.0001L156.15 77.0396H154.496V91.0001H140.006V44.6857H161.708C170.64 44.6857 177.851 51.9637 177.851 60.8958C177.851 66.3873 175.139 71.2173 170.97 74.1284L179.704 91.0001H163.428ZM162.965 60.8958C162.965 59.0432 161.443 57.5214 159.59 57.5214H154.496V64.2701H159.59C161.443 64.2701 162.965 62.7483 162.965 60.8958ZM201.979 43.8918C215.808 43.8918 222.821 52.2283 222.821 62.1529V73.5991C222.821 83.5237 215.808 91.8602 201.979 91.8602C188.217 91.8602 181.204 83.5237 181.204 73.5991V62.1529C181.204 52.2283 188.217 43.8918 201.979 43.8918ZM207.934 73.5991V62.1529C207.934 61.2927 207.471 56.6613 201.979 56.6613C196.554 56.6613 196.091 61.2927 196.091 62.1529V73.5991C196.091 74.4593 196.554 79.0907 201.979 79.0907C207.471 79.0907 207.934 74.4593 207.934 73.5991Z" fill="#073B4C"/>
<path d="M88.4494 84.1937C88.7998 84.5219 89.2601 84.8071 89.6419 84.9201C90.144 85.0816 90.7663 85.0439 91.8594 84.7856C92.3301 84.678 93.0205 84.5542 93.4023 84.5112C93.7841 84.4628 94.213 84.3928 94.3594 84.3551C94.9766 84.1829 95.2538 84.2098 95.4839 84.4574C95.6722 84.6618 95.6722 85.0385 95.4839 86.4752C95.2956 87.9388 95.2695 88.0626 95.0498 88.4823C94.7255 89.1173 94.2967 89.424 92.8427 90.0536C91.6502 90.5701 91.237 90.8553 90.2119 91.8616L89.5739 92.4857L89.6262 93.266C89.7046 94.4659 89.7988 94.8157 90.2224 95.4237C90.4682 95.7789 90.9546 96.7636 91.1011 97.2156C91.2161 97.5546 91.7339 98.0873 92.2778 98.4102C92.6858 98.6577 92.9839 98.9536 93.0937 99.2281C93.2036 99.5079 93.9463 100.288 94.5163 100.735C95.0446 101.149 95.2119 101.359 95.667 102.171C96.0174 102.801 96.509 103.318 96.9745 103.538L97.3249 103.71L98.2245 103.678C99.8772 103.619 100.557 103.425 102.518 102.467C103.999 101.746 104.448 101.612 106.132 101.359C108.099 101.063 108.951 100.762 109.558 100.143C109.799 99.9007 109.872 99.7823 109.966 99.4702C110.222 98.6523 110.641 98.0658 111.232 97.7053C111.645 97.4577 111.697 97.4577 111.697 97.6891C111.697 97.8021 111.729 97.8828 111.776 97.9044C111.818 97.9205 111.854 97.9905 111.854 98.055C111.854 98.125 111.891 98.3779 111.938 98.6254C112.022 99.0451 112.022 99.0935 111.933 99.4056C111.886 99.5886 111.818 99.7931 111.791 99.8576C111.755 99.9384 111.755 100.024 111.797 100.148C111.933 100.552 111.833 101.16 111.53 101.784C111.2 102.457 110.991 102.618 110.463 102.618C110.228 102.618 109.898 102.672 109.574 102.758C109.286 102.833 108.789 102.952 108.46 103.022C107.518 103.226 107.095 103.501 107.095 103.915C107.095 104.055 106.985 104.189 106.818 104.248C106.765 104.27 106.582 104.232 106.415 104.173C105.881 103.985 105.636 104.076 103.643 105.212C103.256 105.432 102.414 105.9 101.771 106.25C101.132 106.6 100.609 106.907 100.609 106.928C100.609 107.009 100.813 107.025 102.126 107.052C103.235 107.073 103.538 107.1 104.375 107.24C106.943 107.682 107.764 107.488 108.627 106.245C108.732 106.094 108.925 105.868 109.056 105.744C109.302 105.513 110.107 105.072 110.191 105.126C110.212 105.142 110.186 105.249 110.123 105.362L110.008 105.572L110.149 105.739C110.306 105.933 110.317 106.024 110.201 106.304C110.128 106.482 110.128 106.514 110.201 106.632C110.28 106.751 110.275 106.767 110.144 106.891C110.013 107.014 110.008 107.036 110.065 107.235C110.149 107.52 110.144 107.784 110.05 108.015C109.945 108.268 109.736 108.521 109.59 108.559C109.511 108.575 109.433 108.666 109.37 108.806C109.203 109.188 109.155 109.199 107.409 109.242C105.473 109.29 104.966 109.387 104.872 109.732C104.783 110.055 104.726 110.151 104.616 110.151C104.506 110.151 104.443 110.114 104.009 109.802C103.789 109.646 103.763 109.64 103.256 109.651C102.963 109.656 102.466 109.694 102.152 109.742C101.148 109.888 98.8887 109.995 95.327 110.06L94.6732 110.071L94.4013 110.824C93.8573 112.32 93.1042 113.687 92.1366 114.94C91.6345 115.597 90.0237 117.265 89.3228 117.862C89.0561 118.094 88.5069 118.53 88.1094 118.842C87.7015 119.159 87.2674 119.547 87.1105 119.74C86.6816 120.257 86.305 120.617 85.7036 121.096C85.4002 121.338 84.8824 121.774 84.553 122.065C84.2235 122.361 83.7318 122.77 83.4651 122.974C82.9473 123.372 82.5917 123.792 82.508 124.115C82.4766 124.223 82.3249 124.502 82.168 124.739C81.8281 125.256 81.6712 125.568 81.4306 126.208C81.1534 126.94 80.9703 127.29 80.7559 127.467L80.5624 127.629L80.6304 128.877C80.667 129.56 80.6774 130.26 80.6565 130.421C80.6356 130.588 80.6042 131.632 80.5781 132.746C80.5414 134.662 80.531 134.796 80.4055 135.307C79.9452 137.153 78.7109 140.107 77.6753 141.813C77.0268 142.884 76.9117 143.142 76.5561 144.347C76.1534 145.709 76.0697 146.128 76.1743 146.301C76.2004 146.338 76.3783 146.397 76.5718 146.424C77.0111 146.494 77.2255 146.586 77.4661 146.801C77.6649 146.979 77.6963 147.065 77.5707 147.065C77.4609 147.065 77.4714 147.188 77.5969 147.35C77.7276 147.517 77.7276 147.597 77.6073 147.64C77.5603 147.657 77.4191 147.786 77.304 147.92C77.1 148.157 77.0686 148.168 76.7548 148.195L76.4201 148.222L76.4253 148.415C76.4358 148.867 76.917 150.051 77.236 150.428C77.4557 150.686 77.6073 150.756 78.0153 150.794C78.6481 150.853 80.3793 151.445 80.4996 151.638C80.5571 151.735 80.4264 151.8 80.1753 151.8C79.9766 151.8 79.9504 151.816 79.9243 151.945C79.8772 152.187 79.6785 152.559 79.553 152.639C79.3437 152.785 79.1241 152.817 78.7998 152.758C78.5435 152.704 78.4442 152.709 78.2193 152.785C78.0728 152.833 77.8375 152.876 77.6963 152.876C77.3145 152.876 76.0435 152.569 75.8553 152.435C75.6722 152.3 75.5101 151.951 75.5048 151.692C75.5048 151.396 75.4264 151.165 74.8197 149.642C73.9253 147.382 73.4494 145.854 72.9578 143.632C72.7538 142.717 72.712 142.421 72.712 141.98C72.7067 141.468 72.7172 141.42 72.9107 140.984C73.1984 140.328 73.4599 139.537 73.5749 138.972C73.6952 138.385 73.7998 136.174 73.7266 135.679C73.6272 134.958 73.1617 134.005 72.1314 132.402C71.8071 131.896 71.462 131.331 71.3574 131.137L71.1743 130.787L71.1481 129.577C71.1272 128.377 71.1272 128.361 70.9599 127.882C70.735 127.247 70.5781 126.978 70.3479 126.827C70.1597 126.709 70.1387 126.709 69.5686 126.768C69.2444 126.805 68.826 126.832 68.6325 126.832C68.4389 126.832 68.235 126.859 68.1774 126.892C68.0938 126.935 68.0467 126.929 67.9682 126.854C67.8845 126.779 67.8479 126.773 67.7329 126.827C67.5341 126.918 67.2203 126.854 66.8124 126.639C66.7392 126.596 66.6241 126.563 66.5613 126.563C66.4986 126.563 66.4044 126.542 66.3521 126.509C66.2998 126.483 66.0226 126.445 65.7402 126.434C64.872 126.391 63.9986 126.149 63.9986 125.95C63.9986 125.875 63.6377 125.627 63.2088 125.406C63.099 125.347 62.9892 125.261 62.9735 125.207C62.9578 125.153 62.8898 125.094 62.8218 125.078C62.7538 125.062 62.6597 125.003 62.6074 124.944C62.5603 124.89 62.4871 124.841 62.4452 124.841C62.4086 124.841 62.3772 124.793 62.3772 124.734C62.3772 124.675 62.3354 124.605 62.2779 124.583C62.1785 124.545 61.6973 124.023 61.6973 123.954C61.6973 123.932 61.6032 123.808 61.4881 123.674C61.373 123.539 61.2789 123.383 61.2789 123.335C61.2789 123.281 61.2371 123.184 61.1848 123.114C61.054 122.92 60.9703 122.786 60.9128 122.646C60.7768 122.334 60.7454 122.269 60.5938 122.022C60.4735 121.817 60.4421 121.715 60.463 121.586C60.4839 121.484 60.4682 121.381 60.4212 121.311C60.3793 121.252 60.327 121.069 60.3113 120.908C60.2904 120.746 60.2329 120.52 60.1858 120.402C60.0289 120.036 59.9714 119.816 60.0132 119.778C60.076 119.713 61.3207 119.347 61.5875 119.315C62.4348 119.213 62.9055 119.622 63.6063 121.075C64.2705 122.447 64.7988 122.947 65.8553 123.227C66.7392 123.458 67.8375 123.458 68.873 123.227C69.464 123.098 69.5948 123.023 69.8354 122.678C69.9504 122.522 70.2486 122.151 70.5048 121.855C70.7611 121.559 71.1952 121.037 71.462 120.698C71.7287 120.359 72.0843 119.907 72.2465 119.697C72.4138 119.482 72.7224 119.084 72.9316 118.809C73.4756 118.078 74.4379 116.888 74.7831 116.506C74.9504 116.323 75.1806 116.006 75.2956 115.801C75.4839 115.468 75.8186 114.994 76.9902 113.412C77.1837 113.149 77.3825 112.847 77.4243 112.74C77.7799 111.873 77.9787 111.529 78.4023 110.991C78.5958 110.743 78.6377 110.646 78.6691 110.383C78.7371 109.742 78.8103 109.42 78.962 109.086C79.0613 108.865 79.1345 108.596 79.1659 108.333C79.1921 108.101 79.2967 107.676 79.3961 107.38C79.5007 107.084 79.668 106.525 79.7674 106.143C79.8668 105.755 80.008 105.244 80.076 105.007C80.1544 104.738 80.2381 104.232 80.2904 103.694C80.4316 102.231 80.5205 101.967 81.0958 101.3C81.509 100.826 81.4933 101.004 81.2737 99.7124C81.1325 98.8353 80.6879 96.7636 80.3845 95.5421L80.1858 94.735L80.191 93.5781C80.1963 92.4481 80.2015 92.405 80.3689 91.7755C80.6617 90.6616 80.6774 90.5647 80.7193 89.3002L80.7611 88.0626L80.9337 87.6913C81.0278 87.4868 81.2527 87.0887 81.4358 86.8035C81.8228 86.2008 81.8908 86.0609 82.0163 85.6788C82.1471 85.2645 82.2988 85.1031 82.7119 84.9632C83.146 84.8179 83.3239 84.7264 83.5645 84.5327C83.7841 84.3551 83.9044 84.339 84.0718 84.4628C84.1816 84.5381 84.2235 84.5327 84.6471 84.4143C85.4839 84.1668 85.6983 84.1399 87.7433 84.0269L88.2402 84L88.4494 84.1937Z" fill="#FFD166"/>
<path d="M209.523 1.08494C208.831 1.29247 208.033 1.71723 207.601 2.10176C207.347 2.3293 207.015 2.77994 206.92 3.02141C206.876 3.13547 206.8 3.48895 206.755 3.80569C206.648 4.52523 206.678 5.04138 206.84 5.21954C207.02 5.41695 207.204 5.47059 207.577 5.43371C208.006 5.39145 208.178 5.29004 208.561 4.87664C209.261 4.10703 209.969 3.80924 210.702 3.97326C211.499 4.14779 212.601 4.91683 213.142 5.66952C213.604 6.31182 213.764 6.81512 213.887 7.97617C213.967 8.74477 213.967 8.87557 213.913 9.6194C213.749 11.8216 213.473 13.1065 212.799 14.8273C212.623 15.2709 212.543 15.4138 212.25 15.7888C211.733 16.4432 210.734 17.445 210.394 17.6474C209.833 17.977 209.29 18.0601 208.271 17.9623C206.774 17.8232 205.666 17.8101 204.146 17.9221C202.85 18.0163 201.847 18.17 199.464 18.6415C196.496 19.2341 196.632 19.1995 190.185 20.798C189.254 21.0292 188.339 21.2545 188.157 21.2978C187.975 21.3453 187.676 21.4591 187.499 21.5526C187.044 21.7916 186.763 21.87 186.204 21.9209C185.835 21.9574 185.563 21.9505 185.057 21.899C183.961 21.7878 183.358 21.6953 183.035 21.5964C182.698 21.4904 181.109 20.6428 180.111 20.0281C179.336 19.556 178.971 19.381 178.364 19.2004C177.166 18.8416 176.522 18.4579 175.572 17.5515C174.94 16.9471 174.439 16.5028 174.28 16.4045L174.132 16.3137L173.997 16.538C173.892 16.7172 173.841 16.7602 173.74 16.7701C173.669 16.7771 173.58 16.8239 173.534 16.879C173.451 16.9801 173.453 16.9968 173.561 17.7541C173.694 18.7158 173.704 18.8542 173.646 19.0414C173.578 19.259 173.432 19.4043 173.027 19.6426C172.09 20.1993 171.711 20.6587 171.195 21.8744C170.906 22.5528 170.717 22.8669 170.308 23.3672C170.111 23.6061 169.915 23.8955 169.86 24.0275C169.706 24.4014 169.735 24.5168 170.155 25.1633C170.795 26.1509 171.063 26.4579 171.456 26.6596C171.826 26.8509 172.062 26.8741 172.624 26.7764C172.879 26.7302 173.213 26.6845 173.369 26.6692C173.911 26.6241 174.458 26.7938 174.952 27.1628C175.113 27.2862 175.274 27.38 175.308 27.3767C175.43 27.3647 175.745 27.591 175.98 27.8674C176.262 28.1941 176.8 29.0483 177.162 29.7469L177.413 30.2286L177.492 31.5501C177.534 32.276 177.591 33.3718 177.614 33.9857C177.64 34.5992 177.697 35.5137 177.742 36.0198L177.829 36.9397L177.565 37.8309C177.418 38.3222 177.239 38.8674 177.167 39.0433C176.931 39.611 176.145 41.0095 175.426 42.144C174.809 43.1163 172.899 45.4993 172.504 45.7873C172.322 45.9192 172.288 45.9267 171.768 45.9823C171.294 46.0291 171.198 46.0512 171.055 46.1455C170.963 46.2052 170.791 46.3024 170.674 46.3646C170.403 46.501 170.274 46.6488 170.187 46.9275C170.067 47.2981 170.184 47.6747 170.493 47.927C170.608 48.0211 170.691 48.0425 171.071 48.0683C171.635 48.1097 172.667 48.0458 173.148 47.9351C173.567 47.8431 173.933 47.6424 174.296 47.3196C174.844 46.8224 174.947 46.7489 175.262 46.6292C175.438 46.5612 175.636 46.4699 175.704 46.4252C175.776 46.3802 176.158 45.9584 176.553 45.489C177.437 44.4395 177.87 44.0128 178.833 43.2426C179.995 42.3091 180.566 41.7718 181.14 41.0651C181.42 40.721 181.756 40.346 181.885 40.2321C182.267 39.8947 183.215 38.7208 183.313 38.4622C183.468 38.0586 183.945 37.5684 184.691 37.0433C184.92 36.8813 185.192 36.6647 185.288 36.5624C185.518 36.316 185.654 36.2772 185.869 36.3953C186.084 36.5091 186.291 36.5477 186.572 36.52C186.854 36.4922 188.166 36.5146 188.602 36.556C189.415 36.6277 189.622 36.7929 190.52 38.0758C192.145 40.4012 192.235 40.5442 192.914 41.8361C193.718 43.373 193.814 43.6084 193.672 43.7616C193.634 43.8034 193.469 43.8956 193.302 43.9711C192.921 44.148 192.718 44.32 192.603 44.5719C192.473 44.8463 192.515 45.1841 192.737 45.6728C192.824 45.8668 192.904 46.0319 192.918 46.0432C192.973 46.0926 194.201 46.1191 194.757 46.0811C195.469 46.0362 195.93 45.9358 196.081 45.7901C196.259 45.6206 196.293 45.3218 196.218 44.557C196.081 43.1736 195.739 41.5531 195.268 40.0424C194.835 38.6671 193.954 35.5763 193.933 35.3632C193.923 35.2629 193.947 35.2478 194.36 35.1015C194.598 35.0148 194.875 34.8988 194.971 34.8429C195.312 34.6447 196.471 34.4923 198.582 34.3641C200.159 34.2718 200.76 34.259 201.756 34.2999C203.106 34.3567 203.182 34.3534 203.566 34.2141C203.959 34.0699 204.064 34.0553 204.353 34.1112C204.829 34.2035 205.12 34.4532 205.363 34.9821C205.703 35.7166 205.919 36.0119 206.536 36.5966C207.27 37.288 208.653 38.8396 209.096 39.4669C209.357 39.8378 209.377 40.2072 209.161 40.5999C209.064 40.7741 208.351 41.7602 207.707 42.6172C207.294 43.1643 207.254 43.1893 206.785 43.1977C206.416 43.2045 206.412 43.2049 206.1 43.3918C205.692 43.6431 205.262 44.1413 205.215 44.4288C205.156 44.7764 205.393 45.3817 205.643 45.509C205.728 45.5555 205.874 45.5664 206.156 45.5512C206.511 45.5331 207.916 45.3354 208.682 45.2006L208.995 45.1445L209.316 44.7457C209.494 44.5298 209.98 43.8699 210.393 43.2847C210.806 42.6996 211.214 42.1529 211.295 42.0773C211.49 41.8978 211.778 41.4726 211.962 41.0958C212.317 40.3602 212.985 38.4923 213.011 38.1521C213.021 38.0794 212.917 37.6255 212.788 37.1402C212.464 35.9188 212.336 35.3532 212.24 34.7255C212.156 34.1303 212.167 34.0237 212.339 33.9604C212.441 33.9249 213.797 34.1793 215.448 34.5397C215.852 34.6307 216.404 34.724 216.678 34.7518C217.277 34.815 217.594 34.8892 217.979 35.0496C218.78 35.3884 219.319 35.8669 219.772 36.6325C220.047 37.0991 220.78 38.6894 221.007 39.3127C221.123 39.6304 221.267 40.1015 221.327 40.3615C221.472 41.0182 221.681 41.3351 222.273 41.8254C222.527 42.0367 222.607 42.0794 222.716 42.0686C222.88 42.0524 223.175 41.8207 223.467 41.4754C223.733 41.158 223.78 40.9424 223.716 40.2988L223.67 39.8307L223.294 39.0702C221.928 36.3184 221.603 35.5612 221.234 34.2642C221.143 33.9482 221.039 33.6208 221.006 33.5439C220.911 33.3127 220.555 32.6726 220.237 32.1554C219.95 31.6942 219.926 31.667 219.7 31.5669C219.337 31.4087 218.953 31.1342 218.65 30.8055C218.498 30.6432 218.234 30.4202 218.062 30.3064C217.717 30.0788 217.489 29.827 217.401 29.5783C217.313 29.3337 217.214 29.1916 216.908 28.88C216.715 28.6838 216.621 28.5496 216.588 28.4346C216.418 27.7846 216.332 27.3796 216.199 26.6331C216.114 26.1646 216.024 25.7261 215.996 25.6571C215.959 25.5806 215.947 25.4594 215.963 25.3186C215.984 25.0591 215.891 24.7644 215.681 24.4349C215.44 24.0619 214.994 23.2746 214.855 22.9886C214.747 22.7545 214.705 22.5857 214.621 22.0327C214.564 21.667 214.497 21.3318 214.471 21.2879C214.357 21.1177 214.279 20.754 214.296 20.5033C214.331 20.1243 214.492 19.737 215.195 18.351C215.577 17.5874 215.92 16.853 216.036 16.525C216.299 15.7902 216.357 15.6452 216.587 15.192C216.796 14.7705 216.977 14.242 217.073 13.7514C217.107 13.5793 217.195 13.2709 217.276 13.0645C217.435 12.6564 217.5 12.3631 217.697 11.145C217.908 9.84552 217.917 9.67586 217.797 8.45547C217.679 7.26851 217.602 6.91323 217.253 5.95174C216.898 4.98231 216.343 3.99057 215.715 3.21691C215.281 2.68162 215.16 2.57955 214.856 2.49989C214.669 2.45084 214.516 2.3688 214.323 2.21484C213.84 1.83205 212.728 1.30455 211.877 1.05935C211.472 0.943247 211.322 0.928493 211.06 0.979674C211.026 0.987169 210.881 0.972001 210.739 0.94806C210.411 0.895962 209.992 0.941578 209.523 1.08494Z" fill="#FFD166"/>
</svg>
