<svg width="256" height="181" viewBox="0 0 256 181" fill="none" xmlns="http://www.w3.org/2000/svg">
<path d="M61.9436 91.2379C51.8901 91.2379 43.8283 90.9296 37.7582 90.3131C31.7356 89.6966 26.5428 88.3688 22.18 86.3297C17.8171 84.3379 14.1656 81.3266 11.2254 77.2957C8.04813 72.6957 6.45948 66.27 6.45948 58.0185C6.45948 48.3918 8.8306 41.2073 13.5728 36.4651C18.3625 31.7229 25.049 29.3517 33.6325 29.3517C42.1685 29.3517 48.8313 31.462 53.621 35.6826C58.4106 39.8558 60.8055 46.1155 60.8055 54.4619C60.8055 58.066 60.2127 61.4567 59.0271 64.6339C57.889 67.7638 55.8972 70.6566 53.0519 73.3122L53.4076 74.0236H61.9436V91.2379ZM33.6325 74.0236C36.8572 74.0236 38.4695 72.2689 38.4695 68.7597V47.2774C38.4695 43.7681 36.8572 42.0135 33.6325 42.0135C30.4078 42.0135 28.7954 43.7681 28.7954 47.2774V68.7597C28.7954 72.2689 30.4078 74.0236 33.6325 74.0236ZM111.137 74.0236V85.6895H91.6468V80.141C88.2324 84.5039 83.9644 86.6853 78.8428 86.6853C74.9067 86.6853 71.9428 85.4523 69.9511 82.9864C68.0068 80.5204 67.0346 77.1297 67.0346 72.8143V57.8051H63.9048V46.1392H83.3953V69.471C83.3953 71.036 83.7273 72.1978 84.3912 72.9566C85.1025 73.6679 86.1458 74.0236 87.5211 74.0236C88.8963 74.0236 89.9159 73.6679 90.5798 72.9566C91.2911 72.1978 91.6468 71.036 91.6468 69.471V57.8051H87.8056V46.1392H108.008V74.0236H111.137ZM134.295 86.6853C127.561 86.6853 122.297 84.9307 118.503 81.4214C114.709 77.8648 112.812 72.6957 112.812 65.9143C112.812 59.133 114.709 53.9876 118.503 50.4784C122.297 46.9217 127.561 45.1434 134.295 45.1434C140.981 45.1434 145.795 46.898 148.735 50.4073C151.722 53.8691 153.216 58.1845 153.216 63.3535V68.4752H130.169V68.902C130.169 70.6566 130.691 71.9607 131.734 72.8143C132.777 73.6205 134.508 74.0236 136.927 74.0236C139.819 74.0236 142.57 73.8102 145.178 73.3834C147.786 72.9566 150.063 72.4112 152.007 71.7473V83.1286C150.347 84.0297 147.905 84.8596 144.68 85.6183C141.503 86.3297 138.041 86.6853 134.295 86.6853ZM138.42 60.6505V59.7969C138.42 58.1845 138.065 57.0227 137.353 56.3113C136.689 55.6 135.67 55.2443 134.295 55.2443C132.919 55.2443 131.876 55.6237 131.165 56.3825C130.501 57.0938 130.169 58.2319 130.169 59.7969V60.6505H138.42ZM185.706 45.1434C186.655 45.1434 187.556 45.2382 188.409 45.4279C189.263 45.6176 189.974 45.8547 190.543 46.1392V59.7257C188.599 58.9196 186.513 58.5165 184.284 58.5165C181.296 58.5165 178.996 59.2989 177.384 60.8639C175.771 62.4288 174.965 64.7525 174.965 67.835V74.0236H181.367V85.6895H155.475V74.0236H158.605V57.8051H155.475V46.1392H174.965V51.332C176.293 49.3403 177.811 47.8227 179.518 46.7794C181.225 45.6887 183.288 45.1434 185.706 45.1434ZM214.042 86.6853C207.308 86.6853 202.044 84.9307 198.25 81.4214C194.457 77.8648 192.56 72.6957 192.56 65.9143C192.56 59.133 194.457 53.9876 198.25 50.4784C202.044 46.9217 207.308 45.1434 214.042 45.1434C220.871 45.1434 226.158 46.9454 229.905 50.5495C233.651 54.1062 235.524 59.2278 235.524 65.9143C235.524 72.6957 233.627 77.8648 229.834 81.4214C226.04 84.9307 220.776 86.6853 214.042 86.6853ZM214.042 74.0236C215.417 74.0236 216.437 73.6679 217.101 72.9566C217.812 72.1978 218.168 71.036 218.168 69.471V62.3577C218.168 60.7927 217.812 59.6546 217.101 58.9433C216.437 58.1845 215.417 57.8051 214.042 57.8051C212.667 57.8051 211.623 58.1845 210.912 58.9433C210.248 59.6546 209.916 60.7927 209.916 62.3577V69.471C209.916 71.036 210.248 72.1978 210.912 72.9566C211.623 73.6679 212.667 74.0236 214.042 74.0236Z" fill="#118AB2"/>
<path d="M110.533 147.668H114.089V115.659H110.533V103.994H141.759C147.876 103.994 152.547 105.321 155.772 107.977C158.996 110.585 160.609 114.829 160.609 120.709C160.609 126.589 158.996 130.857 155.772 133.513C152.547 136.121 147.876 137.425 141.759 137.425H134.006V147.668H140.834V159.333H110.533V147.668ZM136.424 127.324C139.175 127.324 140.55 125.807 140.55 122.772V120.211C140.55 118.647 140.194 117.508 139.483 116.797C138.819 116.038 137.799 115.659 136.424 115.659H134.006V127.324H136.424ZM182.712 160.329C175.979 160.329 170.715 158.574 166.921 155.065C163.128 151.509 161.231 146.34 161.231 139.559C161.231 132.778 163.128 127.633 166.921 124.124C170.715 120.567 175.979 118.789 182.712 118.789C189.399 118.789 194.212 120.543 197.152 124.052C200.139 127.514 201.633 131.829 201.633 136.998V142.12H178.587V142.546C178.587 144.301 179.108 145.605 180.152 146.459C181.195 147.265 182.926 147.668 185.344 147.668C188.237 147.668 190.987 147.454 193.595 147.028C196.203 146.601 198.48 146.055 200.424 145.392V156.772C198.764 157.673 196.322 158.503 193.097 159.262C189.92 159.973 186.459 160.329 182.712 160.329ZM186.838 134.295V133.442C186.838 131.829 186.482 130.668 185.771 129.956C185.107 129.245 184.088 128.889 182.712 128.889C181.337 128.889 180.294 129.269 179.583 130.027C178.919 130.739 178.587 131.877 178.587 133.442V134.295H186.838ZM221.318 160.329C216.292 160.329 212.498 159.12 209.938 156.701C207.424 154.235 206.168 150.11 206.168 144.325V131.45H203.038V119.785C204.84 119.785 206.191 119.334 207.092 118.433C207.993 117.485 208.444 116.204 208.444 114.592V111.391H223.524V119.785H233.126V131.45H223.524V143.115C223.524 144.68 223.855 145.842 224.519 146.601C225.231 147.312 226.274 147.668 227.649 147.668C229.451 147.668 231.419 147.454 233.553 147.028V158.195C232.225 158.717 230.423 159.191 228.147 159.618C225.918 160.092 223.642 160.329 221.318 160.329Z" fill="#118AB2"/>
<g clip-path="url(#clip0_96_2)">
<path d="M83.9533 94.4256C84.367 94.6864 84.8849 94.8851 85.293 94.9281C85.832 94.9972 86.4588 94.8484 87.5263 94.3977C87.9865 94.2072 88.6676 93.9613 89.0486 93.8504C89.4287 93.7341 89.8529 93.5882 89.9954 93.5248C90.5935 93.2443 90.8803 93.2212 91.1575 93.424C91.3846 93.5918 91.4501 93.9633 91.5082 95.4139C91.5709 96.8909 91.5658 97.0177 91.4153 97.471C91.1956 98.1553 90.8125 98.5346 89.4424 99.4163C88.3187 100.14 87.9478 100.495 87.0796 101.671L86.5388 102.401L86.7276 103.161C87.016 104.33 87.1726 104.658 87.7093 105.182C88.0212 105.488 88.6873 106.372 88.9149 106.791C89.0909 107.105 89.7104 107.537 90.32 107.758C90.7781 107.929 91.1329 108.168 91.2924 108.419C91.4528 108.675 92.3442 109.311 93.0019 109.649C93.6114 109.963 93.8182 110.14 94.4225 110.86C94.8885 111.418 95.4785 111.839 95.9906 111.973L96.3771 112.08L97.2869 111.887C98.9584 111.532 99.6166 111.219 101.446 109.923C102.827 108.946 103.261 108.733 104.931 108.181C106.881 107.537 107.696 107.087 108.206 106.368C108.408 106.086 108.462 105.956 108.504 105.631C108.622 104.779 108.946 104.125 109.485 103.664C109.862 103.346 109.916 103.336 109.956 103.564C109.975 103.676 110.021 103.75 110.073 103.763C110.118 103.771 110.168 103.833 110.179 103.897C110.191 103.966 110.272 104.209 110.363 104.445C110.521 104.843 110.53 104.891 110.494 105.215C110.478 105.404 110.444 105.618 110.429 105.686C110.405 105.772 110.42 105.857 110.484 105.972C110.693 106.345 110.697 106.963 110.497 107.633C110.279 108.355 110.094 108.552 109.556 108.646C109.317 108.689 108.991 108.801 108.676 108.944C108.396 109.07 107.911 109.276 107.588 109.404C106.666 109.774 106.282 110.121 106.354 110.529C106.379 110.667 106.29 110.82 106.13 110.908C106.081 110.939 105.888 110.934 105.707 110.906C105.132 110.816 104.898 110.95 103.067 112.427C102.712 112.714 101.936 113.327 101.342 113.787C100.754 114.246 100.275 114.643 100.279 114.664C100.293 114.744 100.503 114.723 101.844 114.514C102.976 114.336 103.289 114.308 104.165 114.296C106.855 114.271 107.657 113.933 108.319 112.552C108.399 112.385 108.557 112.127 108.668 111.982C108.878 111.709 109.621 111.13 109.716 111.168C109.74 111.18 109.732 111.291 109.687 111.414L109.607 111.641L109.78 111.78C109.973 111.943 109.999 112.032 109.931 112.328C109.887 112.516 109.893 112.548 109.988 112.652C110.088 112.754 110.086 112.771 109.974 112.917C109.863 113.062 109.861 113.085 109.954 113.271C110.089 113.537 110.13 113.798 110.074 114.043C110.012 114.311 109.843 114.598 109.7 114.661C109.623 114.691 109.559 114.796 109.52 114.945C109.416 115.351 109.37 115.371 107.6 115.726C105.639 116.121 105.139 116.308 105.103 116.664C105.069 116.998 105.027 117.104 104.916 117.124C104.804 117.144 104.733 117.118 104.237 116.888C103.987 116.773 103.959 116.773 103.445 116.874C103.148 116.932 102.649 117.058 102.338 117.162C101.341 117.486 99.0607 117.997 95.4476 118.7L94.7842 118.828L94.6383 119.619C94.3448 121.192 93.816 122.675 93.0493 124.085C92.6525 124.822 91.3032 126.756 90.6938 127.471C90.4626 127.747 89.9795 128.275 89.6293 128.654C89.2693 129.04 88.8949 129.5 88.7689 129.719C88.4223 130.306 88.1018 130.729 87.5729 131.309C87.3063 131.602 86.8552 132.125 86.5704 132.47C86.2866 132.821 85.8573 133.313 85.6215 133.562C85.1638 134.048 84.8748 134.525 84.8458 134.859C84.8325 134.971 84.7268 135.274 84.6083 135.535C84.3522 136.106 84.2467 136.442 84.1132 137.116C83.9583 137.888 83.8328 138.265 83.6455 138.479L83.4766 138.673L83.7628 139.892C83.9188 140.559 84.051 141.247 84.0578 141.41C84.0655 141.578 84.215 142.613 84.382 143.716C84.6777 145.612 84.6904 145.746 84.6515 146.273C84.504 148.176 83.7614 151.31 83.004 153.178C82.5302 154.35 82.458 154.626 82.3056 155.878C82.1324 157.293 82.1202 157.722 82.2566 157.873C82.2897 157.905 82.481 157.932 82.6825 157.924C83.1418 157.914 83.3759 157.965 83.6581 158.135C83.8912 158.274 83.9381 158.353 83.8104 158.376C83.6986 158.396 83.7308 158.516 83.8865 158.652C84.0486 158.793 84.0626 158.873 83.9477 158.937C83.9026 158.961 83.7813 159.114 83.6876 159.267C83.5212 159.537 83.4912 159.554 83.1765 159.636L82.8406 159.723L82.8796 159.913C82.9688 160.357 83.6641 161.438 84.0543 161.752C84.3227 161.968 84.4892 162.009 84.9109 161.973C85.5651 161.918 87.4296 162.191 87.5857 162.361C87.6611 162.446 87.5393 162.533 87.2838 162.578C87.0816 162.614 87.0577 162.635 87.0536 162.767C87.0478 163.014 86.9101 163.416 86.7964 163.518C86.6087 163.698 86.3908 163.77 86.0505 163.77C85.7804 163.762 85.6802 163.786 85.4645 163.9C85.3239 163.974 85.0918 164.059 84.9481 164.084C84.5596 164.153 83.213 164.078 82.9981 163.979C82.7884 163.879 82.5626 163.564 82.5124 163.31C82.461 163.018 82.3409 162.804 81.4589 161.411C80.156 159.343 79.4061 157.921 78.5196 155.818C78.153 154.952 78.059 154.668 77.9823 154.233C77.8881 153.73 77.8904 153.68 78.0115 153.215C78.1902 152.516 78.3188 151.69 78.3377 151.112C78.3581 150.512 78.0802 148.312 77.9197 147.837C77.6932 147.144 77.054 146.288 75.7269 144.892C75.309 144.451 74.8595 143.956 74.7194 143.783L74.4723 143.471L74.2353 142.282C74.0055 141.103 74.0027 141.087 73.7491 140.644C73.4099 140.059 73.2035 139.821 72.9431 139.714C72.7309 139.631 72.7097 139.635 72.1398 139.795C71.8164 139.891 71.3953 139.992 71.1984 140.027C71.0015 140.062 70.7986 140.125 70.7457 140.167C70.668 140.225 70.6191 140.228 70.5262 140.167C70.428 140.108 70.3898 140.109 70.282 140.183C70.0957 140.309 69.7652 140.302 69.3126 140.162C69.2306 140.133 69.1079 140.122 69.0441 140.133C68.9802 140.144 68.8807 140.14 68.8218 140.118C68.7639 140.101 68.4753 140.113 68.186 140.153C67.2951 140.266 66.3642 140.184 66.3296 139.988C66.3165 139.914 65.9062 139.734 65.4315 139.594C65.3094 139.555 65.1827 139.49 65.1574 139.439C65.1321 139.389 65.0526 139.343 64.9806 139.339C64.9086 139.336 64.8025 139.294 64.739 139.245C64.6818 139.201 64.5988 139.166 64.5563 139.173C64.519 139.18 64.4787 139.138 64.4684 139.079C64.4581 139.021 64.4033 138.96 64.3411 138.949C64.2334 138.929 63.653 138.501 63.6409 138.432C63.6371 138.411 63.5198 138.306 63.3794 138.194C63.2389 138.082 63.116 137.945 63.1076 137.897C63.0982 137.844 63.0388 137.756 62.9734 137.696C62.8067 137.529 62.6982 137.411 62.6153 137.283C62.4227 137 62.3795 136.942 62.1822 136.725C62.0242 136.545 61.9745 136.45 61.9734 136.319C61.9769 136.214 61.9431 136.116 61.8831 136.055C61.8302 136.005 61.7452 135.834 61.7012 135.677C61.6518 135.522 61.554 135.309 61.4855 135.201C61.2623 134.868 61.1654 134.661 61.2014 134.616C61.2541 134.541 62.4571 133.957 62.723 133.878C63.5674 133.625 64.1174 133.944 65.0831 135.251C65.9975 136.485 66.622 136.883 67.7457 136.97C68.6854 137.04 69.803 136.843 70.8166 136.429C71.3956 136.195 71.5155 136.098 71.7005 135.715C71.7905 135.54 72.0293 135.121 72.2386 134.783C72.448 134.445 72.799 133.853 73.0115 133.47C73.224 133.088 73.5074 132.579 73.6359 132.343C73.7688 132.1 74.0136 131.652 74.1788 131.344C74.6051 130.525 75.3777 129.18 75.6626 128.741C75.8011 128.531 75.9801 128.176 76.0616 127.954C76.1952 127.591 76.4535 127.064 77.3707 125.294C77.5218 124.999 77.6717 124.667 77.6956 124.553C77.9069 123.635 78.0493 123.26 78.3869 122.653C78.5408 122.374 78.5665 122.271 78.5526 122.006C78.5105 121.362 78.5289 121.03 78.6253 120.674C78.6881 120.439 78.7158 120.16 78.7019 119.895C78.6883 119.662 78.7209 119.224 78.7706 118.914C78.8256 118.604 78.8986 118.022 78.9333 117.627C78.9671 117.227 79.022 116.698 79.05 116.452C79.0831 116.173 79.0803 115.659 79.04 115.119C78.9293 113.65 78.974 113.374 79.4435 112.613C79.7816 112.072 79.7965 112.25 79.3485 111.016C79.0524 110.176 78.2399 108.213 77.719 107.063L77.3764 106.303L77.1807 105.161C76.9896 104.046 76.9875 104.002 77.0483 103.351C77.1528 102.2 77.1519 102.102 76.9747 100.848L76.8022 99.6197L76.9133 99.2226C76.9736 99.0041 77.1332 98.5711 77.2699 98.257C77.559 97.5933 77.6039 97.4431 77.6652 97.0439C77.7263 96.6118 77.8525 96.4255 78.2487 96.2134C78.6652 95.9923 78.8302 95.8702 79.0414 95.636C79.234 95.4215 79.3536 95.384 79.5455 95.476C79.6703 95.5306 79.712 95.5178 80.1225 95.3251C80.931 94.9309 81.1445 94.8659 83.2059 94.3877L83.7068 94.2721L83.9533 94.4256Z" fill="#FFD166"/>
</g>
<path d="M178.566 1.32782C177.829 1.46921 176.96 1.82344 176.472 2.17445C176.186 2.38246 175.795 2.81208 175.671 3.05104C175.614 3.16401 175.499 3.52048 175.419 3.84225C175.233 4.57273 175.209 5.10788 175.358 5.30849C175.524 5.5309 175.708 5.60543 176.098 5.60659C176.545 5.60792 176.734 5.52146 177.173 5.1355C177.978 4.41556 178.741 4.18286 179.481 4.42875C180.287 4.69224 181.345 5.60049 181.825 6.43304C182.235 7.14354 182.348 7.6791 182.353 8.88881C182.355 9.68947 182.341 9.82432 182.207 10.5854C181.806 12.8383 181.386 14.1337 180.508 15.8369C180.279 16.2757 180.182 16.4146 179.839 16.7704C179.237 17.3909 178.098 18.3187 177.725 18.4916C177.111 18.7726 176.541 18.8014 175.498 18.5937C173.964 18.2933 172.82 18.1637 171.238 18.1198C169.888 18.081 168.835 18.1344 166.323 18.3706C163.192 18.6702 163.336 18.6488 156.503 19.6206C155.516 19.7612 154.547 19.8976 154.354 19.9231C154.161 19.953 153.841 20.0391 153.648 20.1168C153.152 20.3155 152.853 20.3668 152.27 20.3607C151.884 20.3596 151.604 20.324 151.087 20.218C149.965 19.9884 149.352 19.8299 149.028 19.694C148.691 19.5494 147.138 18.5091 146.171 17.7709C145.419 17.2029 145.06 16.9843 144.451 16.7345C143.251 16.2392 142.626 15.7761 141.739 14.7421C141.149 14.0528 140.677 13.5423 140.524 13.4244L140.38 13.3152L140.217 13.5322C140.089 13.7059 140.032 13.7449 139.927 13.7446C139.853 13.7444 139.756 13.7832 139.703 13.8353C139.606 13.9308 139.606 13.9482 139.639 14.7402C139.676 15.7455 139.671 15.8891 139.591 16.076C139.499 16.2932 139.332 16.4276 138.888 16.6308C137.861 17.1064 137.421 17.5403 136.76 18.7393C136.39 19.4083 136.161 19.7122 135.686 20.1851C135.457 20.4107 135.224 20.6885 135.154 20.8188C134.955 21.1881 134.972 21.31 135.339 22.0203C135.896 23.1055 136.141 23.45 136.526 23.6992C136.889 23.9352 137.13 23.9838 137.722 23.9421C137.99 23.9211 138.34 23.9091 138.503 23.9096C139.068 23.92 139.615 24.1522 140.088 24.5844C140.241 24.7285 140.398 24.8421 140.433 24.8422C140.56 24.8426 140.862 25.1089 141.076 25.4185C141.333 25.7848 141.8 26.7217 142.1 27.4798L142.309 28.0026L142.252 29.3731C142.219 30.1258 142.163 31.2613 142.122 31.8965C142.085 32.5317 142.047 33.4802 142.041 34.0067L142.034 34.964L141.667 35.8549C141.464 36.346 141.221 36.8892 141.129 37.063C140.825 37.6234 139.865 38.9826 139.002 40.0766C138.263 41.0143 136.038 43.2704 135.599 43.5258C135.397 43.6427 135.362 43.6469 134.818 43.6496C134.323 43.6482 134.222 43.6609 134.064 43.7431C133.963 43.795 133.774 43.8771 133.647 43.929C133.353 44.0412 133.203 44.18 133.084 44.4582C132.921 44.8276 133.003 45.2281 133.296 45.5205C133.405 45.6297 133.488 45.6604 133.878 45.7268C134.456 45.8286 135.53 45.871 136.039 45.8072C136.482 45.7563 136.882 45.5878 137.29 45.2931C137.91 44.8381 138.024 44.7732 138.362 44.6828C138.55 44.6311 138.765 44.5578 138.84 44.5189C138.919 44.4799 139.359 44.0853 139.816 43.6428C140.84 42.6537 141.333 42.2592 142.409 41.5662C143.709 40.7259 144.355 40.2318 145.023 39.5636C145.349 39.2383 145.735 38.887 145.88 38.783C146.311 38.4753 147.415 37.3646 147.543 37.1083C147.745 36.7085 148.29 36.2533 149.116 35.7901C149.371 35.6473 149.674 35.4524 149.784 35.357C150.047 35.1271 150.192 35.1015 150.402 35.2457C150.612 35.3856 150.822 35.4471 151.116 35.448C151.41 35.4489 152.764 35.6096 153.211 35.6979C154.043 35.8571 154.24 36.0491 155.034 37.4657C156.469 40.0329 156.547 40.1898 157.113 41.5927C157.783 43.2612 157.857 43.5138 157.694 43.657C157.65 43.696 157.47 43.7738 157.29 43.8342C156.878 43.9765 156.649 44.1325 156.504 44.3801C156.341 44.6494 156.348 45.0019 156.527 45.5289C156.596 45.738 156.661 45.9166 156.674 45.9297C156.727 45.9864 157.993 46.1425 158.572 46.1616C159.313 46.19 159.8 46.1348 159.971 46.0005C160.173 45.8444 160.24 45.54 160.242 44.7437C160.247 43.3034 160.063 41.5971 159.735 39.9905C159.432 38.5275 158.846 35.2491 158.846 35.0272C158.847 34.9228 158.873 34.9098 159.316 34.8023C159.571 34.7378 159.869 34.6473 159.974 34.5998C160.348 34.4312 161.562 34.3957 163.758 34.4849C165.398 34.555 166.02 34.6048 167.045 34.7514C168.435 34.9514 168.513 34.956 168.926 34.8528C169.347 34.7452 169.457 34.7412 169.75 34.8291C170.232 34.9741 170.507 35.2622 170.703 35.8328C170.977 36.6255 171.169 36.9525 171.745 37.62C172.431 38.4096 173.697 40.154 174.09 40.847C174.321 41.2567 174.302 41.6396 174.038 42.0217C173.919 42.1911 173.079 43.1328 172.323 43.9486C171.839 44.4694 171.795 44.491 171.308 44.4504C170.927 44.4188 170.923 44.4188 170.58 44.5787C170.133 44.795 169.636 45.2634 169.556 45.5548C169.458 45.9069 169.641 46.5558 169.886 46.7132C169.969 46.77 170.118 46.7966 170.411 46.8105C170.78 46.829 172.253 46.7725 173.06 46.714L173.389 46.6888L173.762 46.3114C173.969 46.1075 174.541 45.4782 175.029 44.9184C175.517 44.3585 175.997 43.8378 176.089 43.7684C176.309 43.6037 176.652 43.1957 176.881 42.8265C177.326 42.1055 178.213 40.2501 178.275 39.9022C178.293 39.8283 178.233 39.3494 178.151 38.8357C177.945 37.5427 177.872 36.9464 177.839 36.2892C177.814 35.6669 177.837 35.5582 178.021 35.5108C178.13 35.4851 179.506 35.8895 181.175 36.4341C181.582 36.5702 182.143 36.7241 182.423 36.7815C183.036 36.9096 183.356 37.0193 183.737 37.2249C184.529 37.6581 185.036 38.2079 185.424 39.0445C185.659 39.5543 186.25 41.2706 186.419 41.9368C186.506 42.2765 186.605 42.7772 186.639 43.0514C186.72 43.7436 186.904 44.0922 187.463 44.6596C187.703 44.904 187.782 44.9564 187.896 44.9568C188.067 44.9573 188.397 44.7494 188.735 44.424C189.043 44.1247 189.114 43.9073 189.116 43.2372L189.117 42.7499L188.808 41.9265C187.686 38.9468 187.43 38.1324 187.184 36.7566C187.124 36.4213 187.05 36.073 187.024 35.9903C186.95 35.742 186.65 35.0449 186.375 34.4784C186.127 33.9729 186.105 33.9424 185.882 33.8155C185.523 33.6143 185.156 33.2912 184.876 32.9205C184.737 32.7373 184.488 32.4798 184.321 32.3444C183.989 32.0736 183.779 31.7902 183.714 31.5245C183.649 31.2633 183.562 31.1063 183.278 30.753C183.099 30.5306 183.016 30.3824 182.995 30.2605C182.887 29.5726 182.84 29.1461 182.781 28.3626C182.743 27.8708 182.696 27.4094 182.675 27.3354C182.644 27.2526 182.645 27.1264 182.676 26.9829C182.725 26.7176 182.66 26.4041 182.477 26.0424C182.268 25.6328 181.889 24.7744 181.776 24.4651C181.689 24.2125 181.663 24.034 181.634 23.4552C181.613 23.0722 181.579 22.7196 181.558 22.6717C181.457 22.4843 181.415 22.1012 181.459 21.8446C181.535 21.4576 181.742 21.0753 182.614 19.7202C183.09 18.9732 183.522 18.2522 183.676 17.9263C184.025 17.1963 184.1 17.0529 184.386 16.6099C184.646 16.1973 184.888 15.6715 185.039 15.1759C185.092 15.002 185.216 14.6934 185.322 14.4892C185.529 14.0852 185.626 13.7896 185.959 12.5547C186.313 11.2373 186.34 11.0634 186.344 9.79275C186.348 8.55696 186.305 8.18261 186.045 7.15491C185.781 6.11848 185.31 5.03793 184.743 4.17466C184.35 3.57735 184.237 3.45952 183.93 3.34547C183.742 3.27528 183.593 3.17476 183.409 2.9958C182.95 2.55059 181.856 1.89026 181.002 1.54831C180.595 1.38609 180.442 1.35517 180.166 1.38045C180.13 1.3847 179.982 1.3538 179.837 1.3142C179.504 1.22618 179.066 1.22923 178.566 1.32782Z" fill="#FFD166"/>
<defs>
<clipPath id="clip0_96_2">
<rect width="53.7716" height="68.9679" fill="white" transform="matrix(-0.984821 0.173571 0.173571 0.984821 107.896 90.0089)"/>
</clipPath>
</defs>
</svg>
