<svg width="184" height="148" viewBox="0 0 184 148" fill="none" xmlns="http://www.w3.org/2000/svg">
<path d="M33.6803 87.6237C30.1236 87.6237 27.9422 86.035 27.136 82.8577C25.6659 83.4268 23.935 83.7113 21.9433 83.7113C18.1021 83.7113 15.1619 82.6206 13.1227 80.4392C11.0836 78.2578 10.064 75.1753 10.064 71.1918V45.0147C10.064 41.0313 11.0836 37.9488 13.1227 35.7674C15.1619 33.586 18.1021 32.4952 21.9433 32.4952C25.7845 32.4952 28.7247 33.586 30.7638 35.7674C32.803 37.9488 33.8226 41.0313 33.8226 45.0147V71.1918C33.8226 74.5114 33.0875 77.2382 31.6174 79.3722C31.902 79.8464 32.2576 80.1547 32.6844 80.2969C33.1112 80.4392 33.7277 80.5103 34.5339 80.5103H35.7432V87.6237H33.6803ZM21.9433 76.598C24.6463 76.598 25.9979 74.9619 25.9979 71.6898V44.5168C25.9979 41.2447 24.6463 39.6086 21.9433 39.6086C19.2402 39.6086 17.8887 41.2447 17.8887 44.5168V71.6898C17.8887 74.9619 19.2402 76.598 21.9433 76.598ZM57.6089 83.7113C53.8151 83.7113 50.9224 82.6443 48.9306 80.5103C46.9389 78.3289 45.943 75.2227 45.943 71.1918V33.2066H53.7677V71.7609C53.7677 73.4681 54.0997 74.7011 54.7636 75.4599C55.4749 76.2186 56.4708 76.598 57.7512 76.598C59.0316 76.598 60.0037 76.2186 60.6677 75.4599C61.379 74.7011 61.7347 73.4681 61.7347 71.7609V33.2066H69.2748V71.1918C69.2748 75.2227 68.2789 78.3289 66.2872 80.5103C64.2955 82.6443 61.4027 83.7113 57.6089 83.7113ZM81.961 33.2066H103.301V40.3199H89.7857V53.4796H100.527V60.593H89.7857V75.8867H103.301V83H81.961V33.2066ZM114.916 33.2066H126.511C130.541 33.2066 133.482 34.155 135.331 36.0519C137.181 37.9014 138.105 40.7704 138.105 44.6591V47.7178C138.105 52.8868 136.398 56.159 132.984 57.5342V57.6765C134.881 58.2456 136.208 59.4074 136.967 61.162C137.773 62.9167 138.176 65.2641 138.176 68.2042V76.9537C138.176 78.3763 138.224 79.5382 138.319 80.4392C138.414 81.2928 138.651 82.1464 139.03 83H131.063C130.779 82.1938 130.589 81.4351 130.494 80.7237C130.399 80.0124 130.352 78.732 130.352 76.8825V67.7774C130.352 65.5012 129.972 63.9125 129.214 63.0115C128.502 62.1105 127.246 61.66 125.444 61.66H122.74V83H114.916V33.2066ZM125.586 54.5466C127.151 54.5466 128.313 54.1435 129.071 53.3373C129.878 52.5312 130.281 51.1796 130.281 49.2827V45.4415C130.281 43.6395 129.949 42.3354 129.285 41.5292C128.668 40.723 127.672 40.3199 126.297 40.3199H122.74V54.5466H125.586ZM162.029 83.7113C158.188 83.7113 155.248 82.6206 153.208 80.4392C151.169 78.2578 150.15 75.1753 150.15 71.1918V45.0147C150.15 41.0313 151.169 37.9488 153.208 35.7674C155.248 33.586 158.188 32.4952 162.029 32.4952C165.87 32.4952 168.81 33.586 170.849 35.7674C172.889 37.9488 173.908 41.0313 173.908 45.0147V71.1918C173.908 75.1753 172.889 78.2578 170.849 80.4392C168.81 82.6206 165.87 83.7113 162.029 83.7113ZM162.029 76.598C164.732 76.598 166.084 74.9619 166.084 71.6898V44.5168C166.084 41.2447 164.732 39.6086 162.029 39.6086C159.326 39.6086 157.974 41.2447 157.974 44.5168V71.6898C157.974 74.9619 159.326 76.598 162.029 76.598Z" fill="#118AB2"/>
<path d="M82.7092 90.2087H94.2323C98.1208 90.2087 101.037 91.2519 102.981 93.3384C104.926 95.4249 105.898 98.4835 105.898 102.514V107.422C105.898 111.453 104.926 114.512 102.981 116.598C101.037 118.685 98.1208 119.728 94.2323 119.728H90.5336V140H82.7092V90.2087ZM94.2323 112.615C95.5127 112.615 96.4611 112.259 97.0776 111.548C97.7414 110.837 98.0734 109.627 98.0734 107.92V102.016C98.0734 100.309 97.7414 99.1 97.0776 98.3887C96.4611 97.6774 95.5127 97.3217 94.2323 97.3217H90.5336V112.615H94.2323ZM117.26 90.2087H138.599V97.3217H125.085V110.481H135.825V117.594H125.085V132.887H138.599V140H117.26V90.2087ZM156.331 97.3217H148.151V90.2087H172.335V97.3217H164.155V140H156.331V97.3217Z" fill="#118AB2"/>
<g clip-path="url(#clip0_96_2)">
<path d="M62.5966 86.44C62.9188 86.6432 63.3221 86.798 63.64 86.8314C64.0598 86.8853 64.548 86.7694 65.3794 86.4183C65.7379 86.2699 66.2683 86.0784 66.5651 85.992C66.8611 85.9015 67.1915 85.7879 67.3025 85.7385C67.7683 85.52 67.9917 85.502 68.2076 85.6599C68.3845 85.7907 68.4354 86.08 68.4807 87.2098C68.5296 88.3602 68.5256 88.4589 68.4083 88.812C68.2373 89.3449 67.9389 89.6404 66.8718 90.327C65.9966 90.8904 65.7077 91.1671 65.0315 92.0832L64.6103 92.6517L64.7574 93.2437C64.982 94.1543 65.1039 94.4098 65.522 94.8176C65.7649 95.0561 66.2837 95.7444 66.4609 96.0712C66.598 96.3154 67.0805 96.6523 67.5553 96.8243C67.9121 96.9574 68.1885 97.1431 68.3127 97.3385C68.4376 97.5381 69.1318 98.0336 69.6441 98.297C70.1189 98.5414 70.2799 98.6792 70.7505 99.2397C71.1135 99.6743 71.573 100.002 71.9718 100.107L72.2729 100.19L72.9815 100.04C74.2833 99.7633 74.796 99.5196 76.2208 98.51C77.2962 97.7494 77.6345 97.5833 78.935 97.1538C80.4535 96.6518 81.0884 96.3013 81.4855 95.7412C81.6434 95.5217 81.6854 95.4205 81.7178 95.1677C81.8102 94.5037 82.0624 93.9947 82.482 93.6353C82.7759 93.3875 82.8174 93.3801 82.8487 93.5579C82.864 93.6446 82.8998 93.7023 82.94 93.7122C82.9754 93.7188 83.0139 93.7674 83.0226 93.817C83.0321 93.8707 83.0953 94.0598 83.1661 94.2434C83.2893 94.554 83.2958 94.5912 83.2676 94.8434C83.2551 94.9905 83.2289 95.157 83.2169 95.2102C83.1988 95.2774 83.2104 95.3435 83.2604 95.4327C83.4228 95.7237 83.4263 96.2046 83.2704 96.7263C83.1003 97.289 82.9563 97.4422 82.5377 97.516C82.3511 97.5488 82.0973 97.6362 81.8519 97.7476C81.6341 97.8457 81.2564 98.006 81.0047 98.1057C80.2862 98.3943 79.9876 98.6642 80.0437 98.9825C80.0627 99.0899 79.9938 99.2086 79.8692 99.2774C79.8307 99.3013 79.6805 99.2979 79.5398 99.2758C79.0915 99.2057 78.9091 99.3103 77.4835 100.461C77.2066 100.684 76.6026 101.161 76.1401 101.52C75.6817 101.878 75.3087 102.186 75.3116 102.203C75.3225 102.265 75.4864 102.249 76.5305 102.086C77.4122 101.948 77.6562 101.926 78.3384 101.916C80.4334 101.897 81.058 101.633 81.5737 100.558C81.6362 100.428 81.7589 100.227 81.8458 100.114C82.0093 99.9016 82.5879 99.4502 82.6616 99.4799C82.6803 99.4893 82.6742 99.5756 82.6397 99.6712L82.5769 99.8485L82.7114 99.9569C82.862 100.084 82.8827 100.153 82.8294 100.383C82.7954 100.53 82.7997 100.555 82.8738 100.636C82.952 100.716 82.95 100.729 82.8632 100.842C82.7763 100.955 82.7751 100.973 82.8476 101.117C82.9525 101.325 82.9841 101.528 82.9408 101.719C82.8921 101.928 82.7605 102.151 82.6496 102.201C82.5896 102.224 82.5398 102.305 82.509 102.421C82.4281 102.738 82.3922 102.753 81.0135 103.03C79.4864 103.338 79.0974 103.483 79.0694 103.761C79.0427 104.021 79.0102 104.103 78.9231 104.119C78.8361 104.134 78.7812 104.114 78.3949 103.935C78.1997 103.846 78.1783 103.845 77.7776 103.924C77.5462 103.969 77.1575 104.068 76.9154 104.149C76.1392 104.401 74.363 104.799 71.5489 105.346L71.0322 105.446L70.9187 106.062C70.6901 107.287 70.2782 108.442 69.681 109.54C69.372 110.114 68.321 111.621 67.8464 112.177C67.6664 112.392 67.2901 112.804 67.0173 113.099C66.737 113.4 66.4454 113.758 66.3472 113.929C66.0773 114.385 65.8276 114.715 65.4157 115.167C65.2081 115.395 64.8567 115.802 64.6349 116.071C64.4138 116.345 64.0796 116.727 63.8958 116.922C63.5394 117.3 63.3143 117.672 63.2917 117.932C63.2814 118.019 63.199 118.255 63.1067 118.458C62.9072 118.903 62.8251 119.164 62.7211 119.69C62.6005 120.291 62.5028 120.585 62.3568 120.751L62.2253 120.902L62.4482 121.851C62.5697 122.371 62.6727 122.907 62.678 123.034C62.684 123.165 62.8004 123.971 62.9305 124.83C63.1608 126.307 63.1707 126.411 63.1404 126.822C63.0255 128.303 62.4471 130.745 61.8572 132.2C61.4882 133.113 61.432 133.327 61.3133 134.303C61.1784 135.404 61.1689 135.738 61.2751 135.856C61.3009 135.881 61.4498 135.902 61.6069 135.896C61.9645 135.888 62.1469 135.928 62.3667 136.06C62.5482 136.169 62.5847 136.23 62.4853 136.248C62.3982 136.263 62.4233 136.357 62.5446 136.463C62.6708 136.573 62.6817 136.635 62.5922 136.685C62.5571 136.704 62.4627 136.823 62.3897 136.942C62.2601 137.153 62.2366 137.165 61.9916 137.23L61.7299 137.297L61.7603 137.445C61.8298 137.791 62.3714 138.633 62.6752 138.878C62.8843 139.045 63.014 139.078 63.3424 139.05C63.852 139.007 65.3041 139.22 65.4257 139.352C65.4844 139.418 65.3895 139.486 65.1905 139.521C65.033 139.549 65.0145 139.565 65.0112 139.668C65.0067 139.86 64.8995 140.173 64.8109 140.253C64.6648 140.393 64.495 140.449 64.23 140.449C64.0196 140.443 63.9416 140.461 63.7735 140.551C63.664 140.608 63.4833 140.674 63.3714 140.694C63.0688 140.747 62.02 140.689 61.8526 140.612C61.6893 140.534 61.5134 140.288 61.4743 140.091C61.4343 139.863 61.3408 139.697 60.6538 138.612C59.6391 137.001 59.055 135.894 58.3645 134.255C58.079 133.581 58.0058 133.36 57.9461 133.021C57.8727 132.629 57.8745 132.59 57.9688 132.229C58.1079 131.684 58.2081 131.04 58.2228 130.59C58.2388 130.123 58.0223 128.41 57.8973 128.04C57.7209 127.5 57.2231 126.833 56.1894 125.746C55.8639 125.402 55.5139 125.017 55.4047 124.883L55.2123 124.639L55.0277 123.713C54.8487 122.795 54.8465 122.782 54.649 122.438C54.3848 121.981 54.2241 121.797 54.0213 121.713C53.856 121.649 53.8394 121.651 53.3956 121.777C53.1437 121.851 52.8158 121.93 52.6624 121.957C52.509 121.984 52.351 122.033 52.3098 122.066C52.2493 122.111 52.2112 122.113 52.1389 122.066C52.0623 122.02 52.0326 122.021 51.9487 122.078C51.8036 122.176 51.5461 122.171 51.1936 122.062C51.1298 122.04 51.0342 122.031 50.9845 122.04C50.9347 122.048 50.8572 122.045 50.8114 122.027C50.7663 122.014 50.5415 122.024 50.3162 122.055C49.6223 122.143 48.8973 122.079 48.8703 121.926C48.8601 121.869 48.5406 121.729 48.1708 121.619C48.0758 121.589 47.9771 121.538 47.9573 121.499C47.9376 121.46 47.8757 121.424 47.8196 121.421C47.7636 121.418 47.6809 121.386 47.6315 121.348C47.5869 121.313 47.5223 121.286 47.4891 121.292C47.4601 121.297 47.4287 121.264 47.4207 121.219C47.4127 121.173 47.37 121.125 47.3215 121.117C47.2377 121.102 46.7857 120.768 46.7762 120.715C46.7733 120.698 46.6819 120.616 46.5725 120.529C46.4631 120.442 46.3674 120.335 46.3608 120.298C46.3535 120.256 46.3073 120.188 46.2563 120.141C46.1265 120.011 46.042 119.919 45.9774 119.82C45.8274 119.599 45.7938 119.554 45.6401 119.385C45.5171 119.245 45.4783 119.171 45.4774 119.069C45.4802 118.987 45.4539 118.911 45.4071 118.864C45.366 118.824 45.2997 118.691 45.2655 118.569C45.227 118.448 45.1508 118.282 45.0975 118.198C44.9236 117.939 44.8482 117.777 44.8762 117.743C44.9172 117.684 45.8542 117.229 46.0613 117.167C46.7189 116.97 47.1474 117.219 47.8995 118.237C48.6117 119.198 49.0981 119.508 49.9733 119.576C50.7051 119.63 51.5756 119.477 52.365 119.154C52.816 118.973 52.9094 118.896 53.0535 118.598C53.1235 118.462 53.3095 118.136 53.4726 117.872C53.6356 117.609 53.909 117.148 54.0745 116.85C54.2401 116.553 54.4607 116.156 54.5608 115.972C54.6644 115.783 54.855 115.434 54.9837 115.194C55.3157 114.556 55.9174 113.508 56.1393 113.167C56.2472 113.003 56.3866 112.727 56.4501 112.554C56.5542 112.271 56.7554 111.861 57.4697 110.482C57.5874 110.253 57.7041 109.993 57.7227 109.905C57.8873 109.19 57.9982 108.898 58.2612 108.425C58.381 108.208 58.4011 108.128 58.3903 107.921C58.3575 107.419 58.3718 107.161 58.4468 106.884C58.4957 106.701 58.5173 106.484 58.5065 106.277C58.4959 106.095 58.5213 105.754 58.56 105.513C58.6028 105.271 58.6597 104.818 58.6868 104.511C58.7131 104.199 58.7558 103.787 58.7776 103.596C58.8034 103.378 58.8012 102.978 58.7699 102.557C58.6837 101.413 58.7184 101.198 59.0841 100.606C59.3474 100.184 59.359 100.323 59.0101 99.3615C58.7795 98.7076 58.1467 97.1786 57.7409 96.2828L57.4742 95.6906L57.3217 94.8013C57.1729 93.9327 57.1712 93.8989 57.2186 93.392C57.3 92.4956 57.2993 92.419 57.1613 91.4419L57.0269 90.4855L57.1135 90.1762C57.1604 90.006 57.2847 89.6688 57.3912 89.4242C57.6164 88.9072 57.6513 88.7903 57.6991 88.4793C57.7466 88.1428 57.845 87.9977 58.1535 87.8325C58.4779 87.6603 58.6065 87.5652 58.7709 87.3828C58.921 87.2157 59.0141 87.1865 59.1635 87.2582C59.2608 87.3007 59.2932 87.2907 59.6129 87.1406C60.2427 86.8336 60.409 86.783 62.0144 86.4106L62.4046 86.3205L62.5966 86.44Z" fill="#FFD166"/>
</g>
<path d="M130.383 0.953646C129.853 1.05521 129.229 1.30965 128.879 1.56179C128.674 1.7112 128.392 2.0198 128.304 2.19145C128.262 2.27259 128.18 2.52865 128.122 2.75978C127.989 3.28449 127.972 3.66889 128.078 3.81299C128.198 3.97275 128.33 4.02628 128.61 4.02712C128.931 4.02808 129.067 3.96597 129.382 3.68873C129.96 3.17159 130.509 3.00444 131.04 3.18107C131.619 3.37033 132.379 4.02273 132.724 4.62076C133.019 5.13112 133.099 5.51581 133.103 6.38475C133.104 6.95988 133.095 7.05674 132.999 7.60344C132.71 9.22167 132.408 10.1522 131.778 11.3756C131.613 11.6908 131.544 11.7906 131.297 12.0462C130.865 12.4918 130.047 13.1583 129.779 13.2825C129.338 13.4844 128.928 13.505 128.179 13.3559C127.077 13.14 126.256 13.047 125.119 13.0154C124.149 12.9875 123.393 13.0259 121.588 13.1956C119.339 13.4108 119.443 13.3955 114.535 14.0935C113.826 14.1945 113.13 14.2924 112.991 14.3108C112.853 14.3322 112.623 14.3941 112.484 14.4499C112.128 14.5926 111.913 14.6295 111.495 14.6251C111.217 14.6243 111.016 14.5987 110.645 14.5226C109.839 14.3576 109.398 14.2438 109.166 14.1462C108.923 14.0423 107.808 13.2951 107.113 12.7648C106.573 12.3569 106.315 12.1998 105.878 12.0203C105.016 11.6646 104.567 11.3319 103.93 10.5892C103.506 10.0941 103.167 9.7274 103.057 9.64268L102.954 9.56423L102.837 9.72016C102.745 9.84492 102.704 9.87292 102.628 9.8727C102.575 9.87254 102.505 9.90046 102.468 9.93786C102.398 10.0064 102.398 10.0189 102.421 10.5879C102.448 11.31 102.444 11.4131 102.387 11.5473C102.321 11.7034 102.201 11.7999 101.882 11.9459C101.144 12.2875 100.828 12.5991 100.353 13.4604C100.087 13.941 99.9231 14.1593 99.5819 14.4989C99.4177 14.661 99.2502 14.8605 99.1995 14.9541C99.057 15.2194 99.0694 15.307 99.3324 15.8172C99.7331 16.5967 99.9087 16.8441 100.185 17.0231C100.446 17.1927 100.619 17.2276 101.045 17.1976C101.237 17.1826 101.489 17.1739 101.605 17.1743C102.011 17.1817 102.404 17.3486 102.744 17.659C102.854 17.7625 102.967 17.8441 102.992 17.8442C103.083 17.8444 103.3 18.0358 103.454 18.2581C103.639 18.5212 103.973 19.1943 104.189 19.7388L104.339 20.1143L104.298 21.0987C104.275 21.6394 104.235 22.4551 104.205 22.9113C104.178 23.3676 104.151 24.0489 104.147 24.4271L104.142 25.1147L103.878 25.7547C103.732 26.1075 103.558 26.4976 103.492 26.6225C103.273 27.025 102.584 28.0013 101.964 28.7871C101.433 29.4607 99.8348 31.0812 99.5193 31.2647C99.3742 31.3487 99.349 31.3517 98.9585 31.3537C98.6027 31.3526 98.5302 31.3618 98.4167 31.4208C98.3441 31.4581 98.2086 31.5171 98.1171 31.5543C97.9059 31.635 97.7985 31.7347 97.7129 31.9345C97.5956 32.1998 97.6546 32.4875 97.8649 32.6976C97.9434 32.7759 98.0032 32.798 98.2833 32.8457C98.6988 32.9189 99.4702 32.9493 99.8356 32.9035C100.154 32.8669 100.441 32.7459 100.734 32.5342C101.179 32.2074 101.261 32.1607 101.504 32.0958C101.639 32.0587 101.794 32.006 101.848 31.978C101.904 31.9501 102.22 31.6666 102.548 31.3488C103.284 30.6383 103.638 30.3549 104.411 29.8571C105.345 29.2535 105.809 28.8986 106.289 28.4187C106.523 28.185 106.8 27.9326 106.905 27.8579C107.214 27.6369 108.007 26.8391 108.099 26.655C108.244 26.3678 108.636 26.0408 109.229 25.7081C109.412 25.6055 109.629 25.4655 109.708 25.397C109.898 25.2319 110.002 25.2135 110.153 25.3171C110.303 25.4175 110.455 25.4618 110.665 25.4624C110.876 25.463 111.849 25.5784 112.17 25.6419C112.768 25.7562 112.91 25.8942 113.48 26.9117C114.51 28.7558 114.566 28.8685 114.973 29.8761C115.454 31.0747 115.507 31.2561 115.39 31.3589C115.359 31.387 115.23 31.4429 115.1 31.4862C114.804 31.5885 114.64 31.7005 114.535 31.8784C114.418 32.0718 114.424 32.325 114.552 32.7036C114.602 32.8538 114.649 32.9821 114.658 32.9915C114.696 33.0322 115.606 33.1443 116.021 33.1581C116.553 33.1784 116.903 33.1388 117.026 33.0423C117.171 32.9302 117.219 32.7115 117.221 32.1396C117.224 31.105 117.092 29.8793 116.856 28.7253C116.639 27.6744 116.218 25.3195 116.218 25.1601C116.218 25.0851 116.237 25.0758 116.556 24.9986C116.738 24.9523 116.953 24.8873 117.028 24.8531C117.296 24.732 118.169 24.7065 119.746 24.7706C120.924 24.821 121.371 24.8567 122.108 24.962C123.105 25.1057 123.162 25.109 123.458 25.0348C123.761 24.9576 123.84 24.9547 124.05 25.0178C124.397 25.122 124.594 25.3289 124.735 25.7388C124.931 26.3082 125.069 26.5431 125.484 27.0225C125.976 27.5897 126.886 28.8427 127.168 29.3405C127.334 29.6348 127.32 29.9098 127.131 30.1843C127.045 30.306 126.442 30.9824 125.898 31.5684C125.551 31.9425 125.519 31.958 125.17 31.9289C124.896 31.9062 124.893 31.9061 124.647 32.0211C124.325 32.1764 123.968 32.5129 123.911 32.7221C123.841 32.9751 123.972 33.4412 124.148 33.5543C124.207 33.5951 124.314 33.6141 124.525 33.6242C124.79 33.6374 125.848 33.5968 126.428 33.5548L126.664 33.5368L126.932 33.2656C127.081 33.1192 127.492 32.6672 127.842 32.265C128.193 31.8629 128.537 31.4888 128.604 31.439C128.762 31.3207 129.008 31.0276 129.173 30.7624C129.492 30.2445 130.129 28.9118 130.174 28.6619C130.187 28.6088 130.144 28.2648 130.085 27.8958C129.937 26.967 129.884 26.5387 129.861 26.0666C129.843 25.6196 129.859 25.5415 129.991 25.5075C130.07 25.489 131.058 25.7795 132.257 26.1707C132.549 26.2684 132.952 26.379 133.153 26.4203C133.594 26.5122 133.824 26.5911 134.097 26.7388C134.666 27.0499 135.03 27.4448 135.309 28.0458C135.478 28.412 135.902 29.6448 136.024 30.1234C136.086 30.3673 136.157 30.727 136.182 30.924C136.24 31.4211 136.372 31.6716 136.774 32.0791C136.946 32.2547 137.003 32.2923 137.085 32.2926C137.208 32.293 137.444 32.1436 137.687 31.9099C137.909 31.6949 137.959 31.5388 137.961 31.0574L137.962 30.7074L137.74 30.116C136.934 27.9756 136.75 27.3906 136.573 26.4024C136.53 26.1615 136.477 25.9113 136.458 25.8519C136.405 25.6736 136.19 25.1728 135.993 24.7659C135.814 24.4028 135.798 24.3809 135.638 24.2898C135.38 24.1452 135.116 23.9131 134.916 23.6468C134.815 23.5153 134.636 23.3303 134.517 23.2331C134.278 23.0386 134.128 22.8349 134.081 22.6441C134.034 22.4565 133.972 22.3438 133.768 22.09C133.639 21.9302 133.58 21.8237 133.564 21.7362C133.487 21.2421 133.453 20.9357 133.411 20.3729C133.383 20.0196 133.35 19.6882 133.334 19.635C133.312 19.5756 133.313 19.485 133.335 19.3819C133.37 19.1913 133.324 18.9661 133.192 18.7063C133.042 18.412 132.77 17.7955 132.689 17.5733C132.626 17.3918 132.608 17.2636 132.587 16.8479C132.572 16.5728 132.547 16.3195 132.532 16.2851C132.46 16.1505 132.429 15.8753 132.461 15.691C132.515 15.413 132.664 15.1384 133.291 14.165C133.632 13.6284 133.943 13.1105 134.053 12.8764C134.304 12.3521 134.358 12.2491 134.563 11.9309C134.75 11.6345 134.924 11.2568 135.032 10.9008C135.071 10.7759 135.159 10.5542 135.235 10.4076C135.384 10.1173 135.454 9.90499 135.693 9.01802C135.948 8.07171 135.967 7.94674 135.97 7.03406C135.972 6.14639 135.942 5.87749 135.755 5.13928C135.565 4.39481 135.227 3.61865 134.82 2.99855C134.538 2.5695 134.456 2.48486 134.236 2.40294C134.101 2.35252 133.994 2.28032 133.862 2.15177C133.532 1.83197 132.746 1.35765 132.133 1.11202C131.84 0.995503 131.73 0.973295 131.532 0.991457C131.507 0.994507 131.4 0.972309 131.296 0.943868C131.057 0.880642 130.742 0.882828 130.383 0.953646Z" fill="#FFD166"/>
<defs>
<clipPath id="clip0_96_2">
<rect width="41.8801" height="53.7158" fill="white" transform="matrix(-0.984821 0.173571 0.173571 0.984821 81.2446 83)"/>
</clipPath>
</defs>
</svg>
