<svg width="267.05" height="155.31" viewBox="0 0 1520 830" fill="none" xmlns="http://www.w3.org/2000/svg">
<path d="M1263.56 172.801C1264.67 173.353 1266.62 174.86 1267.88 176.267C1274.75 183.652 1277.81 197.116 1283.68 245.996C1285.24 259.008 1286.69 269.758 1286.84 269.959C1287.04 270.211 1292.71 267.95 1299.43 265.036C1351.86 242.379 1362.3 238.21 1386.18 230.373C1393.15 228.062 1403.79 225.65 1407 225.65C1409.41 225.65 1412.42 226.906 1413.27 228.263C1414.33 229.92 1414.08 235.446 1412.82 240.018C1408.26 256.345 1390.65 295.178 1377.55 317.835C1371.63 328.034 1361.65 342.05 1361.65 340.141C1361.65 339.839 1363.75 336.072 1366.36 331.751C1380.56 307.939 1387.54 291.813 1391.95 272.321C1395.46 256.747 1396.16 246.398 1393.91 243.334C1392.55 241.475 1389.59 241.274 1385.53 242.781C1377.15 245.795 1343.99 261.57 1325.77 271.215C1307.16 281.062 1290.4 291.411 1290.4 293.068C1290.4 293.521 1291.16 296.937 1292.11 300.604C1296.07 316.027 1301.34 324.216 1313.73 334.414C1320.56 339.99 1324.57 342.854 1347.9 358.628C1385.63 384.148 1398.57 393.945 1412.77 407.76C1426.47 421.123 1436.3 435.089 1442.12 449.557C1448.29 465.03 1450.05 475.831 1450.95 504.466C1451.5 521.346 1452.26 529.334 1454.21 538.427C1458.63 558.773 1468.41 583.088 1479.35 600.671C1488.28 615.039 1489.28 616.847 1490.74 620.514C1493.85 628.402 1493 635.485 1487.58 646.437C1482.36 657.137 1473.53 669.295 1464.3 678.589C1455.67 687.229 1449.6 691.148 1436.5 696.573C1428.93 699.688 1426.32 701.396 1417.59 708.932C1403.29 721.24 1392.15 726.766 1375.69 729.881C1368.82 731.187 1345.19 731.187 1335.56 729.881C1318.25 727.52 1300.44 723.45 1285.89 718.427C1281.07 716.769 1276.76 715.312 1276.31 715.161C1274.6 714.558 1252.32 745.957 1226.79 784.84C1209.83 810.662 1206.47 815.485 1205.81 814.832C1205.26 814.279 1207.72 808.401 1212.94 797.852C1227.49 768.362 1246.05 738.521 1264.46 715.111L1267.32 711.494L1259.7 707.575C1249.97 702.552 1244.1 698.884 1236.27 693.007C1232.86 690.444 1229.95 688.335 1229.7 688.335C1229.14 688.335 1212.94 700.341 1203.61 707.676C1178.32 727.57 1166.88 737.768 1105.32 795.239C1086.41 812.923 1081.09 816.942 1085.8 810.009C1092.53 800.112 1114.95 775.094 1135.67 754.396C1162.77 727.268 1184.59 708.982 1214.74 688.033C1218.86 685.22 1222.47 682.808 1222.77 682.658C1223.17 682.557 1221.52 680.498 1218.86 677.684C1214.24 672.912 1211.23 668.993 1211.78 668.441C1212.34 667.888 1214.19 668.843 1221.67 673.766L1229.29 678.739L1235.11 675.172C1253.58 664.02 1282.02 649.2 1287.64 647.843L1289.15 647.492L1288.15 648.597C1286.69 650.255 1282.53 653.118 1268.08 662.462C1251.27 673.263 1236.72 682.959 1236.72 683.361C1236.72 683.914 1254.33 693.66 1264.16 698.583C1269.48 701.245 1273.9 703.406 1274 703.406C1274.1 703.406 1277.51 699.789 1281.62 695.317C1291.81 684.215 1306.06 671.254 1308.01 671.254C1309.67 671.254 1307.81 673.916 1292.91 692.806C1286.99 700.341 1282.18 706.671 1282.23 706.822C1282.38 707.324 1296.72 712.85 1304.7 715.412C1328.83 723.249 1350.11 724.505 1371.43 719.281C1398.07 712.75 1437.56 692.052 1453.46 676.278C1459.18 670.601 1460.74 666.632 1459.48 660.704C1458.73 657.087 1454.71 648.647 1448.84 638.349C1437.15 617.751 1434.85 611.472 1437.2 606.9C1438.96 603.434 1443.23 602.831 1455.37 604.238C1463.7 605.192 1467.86 605.041 1468.86 603.635C1470.82 601.073 1468.51 595.697 1458.33 579.219C1445.53 558.421 1439.86 547.47 1436.5 537.121C1434.09 529.585 1433.64 526.923 1433.64 518.533C1433.64 509.993 1434.04 507.28 1436.95 494.921C1439.51 483.97 1440.42 478.494 1440.42 474.123C1440.42 458.55 1431.64 442.122 1410.31 417.506C1403.69 409.92 1387.59 393.945 1379.56 387.112C1352.82 364.204 1321.26 346.973 1293.87 340.241C1284.73 338.031 1277.01 336.775 1262.06 335.167C1240.08 332.806 1231.7 331.349 1222.67 328.235C1212.34 324.668 1207.92 322.256 1202.75 317.434C1198.54 313.515 1195.93 309.496 1194.22 304.322C1193.02 300.604 1192.87 299.549 1192.87 292.214C1192.82 282.77 1193.77 277.294 1197.44 266.342C1201.5 254.084 1207.12 243.334 1218.76 225.801C1226.64 213.844 1227.94 211.684 1227.44 211.182C1226.18 209.926 1210.53 220.827 1149.77 265.488C1062.22 329.742 1033.28 352.851 1003.47 382.139C981.9 403.389 966.698 421.023 945.375 449.708C936.695 461.413 931.076 469.25 907.345 502.959C891.14 526.018 881.206 539.18 878.948 540.537C877.894 541.24 877.844 541.19 878.195 539.532C878.647 537.07 886.123 522.2 892.444 511.249C933.033 440.515 991.834 369.68 1054.85 315.625C1085.1 289.652 1107.68 272.873 1187.55 217.009C1201.2 207.414 1218.26 195.407 1225.43 190.283C1245.15 176.167 1251.92 172.449 1258.29 172.047C1260.75 171.896 1262.06 172.097 1263.56 172.801Z" fill="#B7B7A4"/>
<path d="M1360.89 472.817C1368.27 473.47 1379.16 475.228 1384.47 476.585C1392.05 478.494 1395.21 480.654 1394.51 483.467C1394.31 484.171 1392.65 486.632 1390.8 488.943C1386.48 494.369 1383.77 498.287 1379.16 505.672C1374.64 513.057 1371.03 517.026 1367.32 518.834C1359.39 522.703 1346.04 519.487 1332.5 510.394C1324.37 504.969 1319.75 499.694 1314.79 490.048C1311.43 483.668 1309.27 481.759 1302.34 479.147L1299.38 478.042L1301.29 477.439C1304 476.635 1317.09 474.475 1324.77 473.571C1332.6 472.616 1353.87 472.214 1360.89 472.817Z" fill="#B7B7A4"/>
<path d="M1285.64 626.794C1284.28 627.949 1278.61 630.562 1269.58 634.179C1247.41 643.021 1227.84 652.817 1208.52 664.522C1193.52 673.665 1182.79 681 1148.92 705.164C1127.3 720.587 1123.88 722.948 1121.43 724.204C1118.32 725.811 1119.72 723.802 1126.19 717.372C1134.12 709.585 1137.43 706.621 1147.82 697.98C1181.48 669.897 1208.72 652.616 1239.48 639.856C1254.53 633.576 1276.25 626.894 1283.58 626.241C1286.49 625.99 1286.59 625.99 1285.64 626.794Z" fill="#B7B7A4"/>
<path d="M453.461 71.8496C450.559 72.1455 440.786 73.5661 431.843 75.0459C403.768 79.722 405.249 79.6036 379.13 79.8403C353.602 80.0771 347.028 80.5506 337.078 82.7407C311.254 88.4822 282.351 106.417 261.917 129.324C248.591 144.299 238.463 158.919 218.858 191.356C203.696 216.512 198.839 224.266 191.317 234.921C184.802 244.213 183.085 247.528 181.248 254.454C180.005 258.952 179.945 260.373 179.886 292.868C179.768 330.395 179.709 331.52 175.622 344.069C171.417 356.854 166.501 365.081 147.607 391.125C119.71 429.422 99.9283 461.799 94.657 477.722C90.1556 491.395 91.281 502.345 98.7437 516.906C102.89 525.015 108.339 532.296 116.098 540.05C139.315 563.193 170.469 578.228 201.978 581.483C211.573 582.49 232.718 581.838 242.905 580.299C273.407 575.623 307.404 565.206 338.736 550.882C355.734 543.128 366.099 537.268 375.754 529.928C380.255 526.495 387.658 520.931 392.16 517.498C404.065 508.442 410.876 505.423 414.844 507.554C417.332 508.797 436.818 536.913 444.636 550.408C457.133 572.013 464.655 590.776 478.929 635.939C482.009 645.528 485.029 654.584 485.74 656.064L486.925 658.668L486.629 656.123C485.859 650.086 474.546 614.216 465.129 587.935C456.245 563.075 450.677 549.343 443.096 533.479C436.936 520.517 436.403 518.8 436.462 512.171C436.522 502.227 439.601 490.921 447.953 470.145C450.262 464.463 452.513 458.603 452.928 457.182L453.757 454.519L452.217 455.999C451.329 456.768 444.577 463.93 437.173 471.921C410.698 500.333 393.048 514.894 366.988 529.632C335.182 547.685 288.688 563.134 248.532 568.935C213.587 574.025 186.342 571.243 165.079 560.47C157.024 556.386 151.931 552.716 146.067 546.797C141.743 542.536 135.228 533.775 135.82 533.183C135.939 533.006 137.538 533.479 139.315 534.19C143.876 535.906 149.798 535.906 154.004 534.012C161.348 530.875 171.298 521.996 181.248 509.862C198.543 488.613 201.149 478.432 191.554 469.494C188.178 466.298 182.611 463.516 176.155 461.74C169.462 459.846 153.53 459.846 142.099 461.74C137.657 462.45 132.03 463.042 129.542 463.042C125.515 463.042 124.982 462.924 124.153 461.681C122.494 459.076 123.916 455.939 135.11 436.998C139.256 430.014 147.252 416.281 152.878 406.515C173.134 371.474 181.13 358.985 195.937 339.215C208.138 322.878 210.922 318.735 213.883 312.579C218.029 303.819 218.207 296.538 214.416 287.482C213.409 285.114 209.323 277.716 205.354 271.027C195.049 253.802 193.627 248.12 197.477 239.715C199.609 234.98 204.051 230.54 217.141 220.064C235.442 205.443 240.18 199.939 261.206 169.278C278.205 144.418 294.315 127.607 312.202 116.065C330.74 104.049 354.313 95.4667 378.241 91.9745C384.934 90.9682 389.494 90.7315 401.932 90.7315C410.402 90.7315 420.412 91.0274 424.143 91.3826C427.874 91.7377 440.964 92.0929 453.165 92.2112C482.423 92.3888 490.538 93.4542 507.121 99.0182C534.366 108.193 566.527 125.595 614.976 157.38C643.405 176.026 674.085 198.755 697.184 218.229C708.497 227.818 724.311 243.444 730.944 251.731C752.03 278.13 762.572 307.074 762.572 338.741C762.572 360.109 758.959 375.203 749.009 395.269C739.118 415.216 724.785 434.512 703.996 455.88C671.894 488.79 645.478 504.18 610.711 510.158C605.559 511.046 598.451 511.756 592.884 511.993C561.078 513.236 547.989 503.529 540.822 473.401C534.603 447.593 533.893 410.658 538.157 340.517C542.362 271.737 542.836 259.426 542.421 241.372C541.711 215.328 539.223 199.761 533.419 185.141C525.897 166.259 511.267 148.561 497.408 141.576C485.977 135.776 478.396 141.221 478.455 155.25C478.514 161.05 479.166 164.187 481.653 170.698C485.029 179.399 490.419 186.621 509.135 207.338C519.382 218.702 523.231 223.437 526.548 228.883C536.558 245.397 537.92 269.133 531.879 323.056C531.227 328.916 528.977 347.798 526.904 365.081C520.211 420.247 519.204 432.145 519.678 454.104C520.092 475.413 522.284 486.541 528.68 499.445C540.645 523.713 564.75 535.433 597.385 532.947C632.152 530.283 670.709 514.065 704.292 487.962C734.617 464.463 763.875 430.251 780.696 398.82C782.414 395.565 783.954 392.783 784.072 392.664C784.19 392.487 785.02 393.079 785.908 393.907C786.797 394.736 793.134 399.886 799.945 405.331C819.787 421.253 822.333 423.503 835.541 436.525C842.471 443.273 848.512 448.836 849.045 448.836C850.585 448.836 850.171 446.824 847.446 441.556C844.189 435.282 839.924 429.244 831.869 419.537C821.682 407.284 799.708 385.857 791.416 380.057L790.054 379.11L792.127 373.605C797.694 358.748 800.241 345.43 800.656 328.679C800.952 317.492 800.834 315.065 799.708 308.613C796.806 291.625 789.936 277.064 777.972 262.622C764.823 246.7 733.077 218.347 697.125 190.468C647.729 152.053 596.852 118.966 554.445 97.5976C525.127 82.7999 506.351 75.9929 485.444 72.619C478.87 71.5536 460.687 71.0801 453.461 71.8496Z" fill="#DDBEA9"/>
<path d="M315.815 250.251C311.61 251.198 308.47 253.092 307.523 255.164C305.805 258.834 307.523 265.641 312.083 273.572C318.717 285.055 328.193 296.302 335.301 301.037C341.638 305.299 349.575 306.66 355.794 304.529C361.065 302.694 365.152 299.735 373.207 291.862C377.471 287.66 382.091 283.694 383.453 282.984C384.875 282.273 387.658 281.563 389.791 281.385L393.64 281.03L393.522 279.018C393.463 277.834 392.574 275.821 391.212 273.809C384.519 264.161 370.66 258.123 341.579 252.264C327.838 249.541 321.264 249.008 315.815 250.251Z" fill="#DDBEA9"/>
<path d="M644.472 693.68L622.512 669.92C617.112 671.48 611.172 672.26 604.692 672.26C593.052 672.26 582.312 669.56 572.472 664.16C562.752 658.64 555.012 651.02 549.252 641.3C543.612 631.46 540.792 620.42 540.792 608.18C540.792 595.94 543.612 584.96 549.252 575.24C555.012 565.52 562.752 557.96 572.472 552.56C582.312 547.04 593.052 544.28 604.692 544.28C616.452 544.28 627.192 547.04 636.912 552.56C646.752 557.96 654.492 565.52 660.132 575.24C665.772 584.96 668.592 595.94 668.592 608.18C668.592 619.7 666.072 630.14 661.032 639.5C656.112 648.74 649.272 656.18 640.512 661.82L670.572 693.68H644.472ZM561.852 608.18C561.852 617.42 563.652 625.58 567.252 632.66C570.972 639.62 576.072 645.02 582.552 648.86C589.032 652.58 596.412 654.44 604.692 654.44C612.972 654.44 620.352 652.58 626.832 648.86C633.312 645.02 638.352 639.62 641.952 632.66C645.672 625.58 647.532 617.42 647.532 608.18C647.532 598.94 645.672 590.84 641.952 583.88C638.352 576.92 633.312 571.58 626.832 567.86C620.352 564.14 612.972 562.28 604.692 562.28C596.412 562.28 589.032 564.14 582.552 567.86C576.072 571.58 570.972 576.92 567.252 583.88C563.652 590.84 561.852 598.94 561.852 608.18ZM789.932 571.82V671H769.412V659.3C766.172 663.38 761.912 666.62 756.632 669.02C751.472 671.3 745.952 672.44 740.072 672.44C732.272 672.44 725.252 670.82 719.012 667.58C712.892 664.34 708.032 659.54 704.432 653.18C700.952 646.82 699.212 639.14 699.212 630.14V571.82H719.552V627.08C719.552 635.96 721.772 642.8 726.212 647.6C730.652 652.28 736.712 654.62 744.392 654.62C752.072 654.62 758.132 652.28 762.572 647.6C767.132 642.8 769.412 635.96 769.412 627.08V571.82H789.932ZM918.707 618.98C918.707 622.7 918.467 626.06 917.987 629.06H842.207C842.807 636.98 845.747 643.34 851.027 648.14C856.307 652.94 862.787 655.34 870.467 655.34C881.507 655.34 889.307 650.72 893.867 641.48H916.007C913.007 650.6 907.547 658.1 899.627 663.98C891.827 669.74 882.107 672.62 870.467 672.62C860.987 672.62 852.467 670.52 844.907 666.32C837.467 662 831.587 656 827.267 648.32C823.067 640.52 820.967 631.52 820.967 621.32C820.967 611.12 823.007 602.18 827.087 594.5C831.287 586.7 837.107 580.7 844.547 576.5C852.107 572.3 860.747 570.2 870.467 570.2C879.827 570.2 888.167 572.24 895.487 576.32C902.807 580.4 908.507 586.16 912.587 593.6C916.667 600.92 918.707 609.38 918.707 618.98ZM897.287 612.5C897.167 604.94 894.467 598.88 889.187 594.32C883.907 589.76 877.367 587.48 869.567 587.48C862.487 587.48 856.427 589.76 851.387 594.32C846.347 598.76 843.347 604.82 842.387 612.5H897.287ZM970.22 586.22C973.22 581.18 977.18 577.28 982.1 574.52C987.14 571.64 993.08 570.2 999.92 570.2V591.44H994.7C986.66 591.44 980.54 593.48 976.34 597.56C972.26 601.64 970.22 608.72 970.22 618.8V671H949.7V571.82H970.22V586.22ZM1072.6 672.62C1063.24 672.62 1054.78 670.52 1047.22 666.32C1039.66 662 1033.72 656 1029.4 648.32C1025.08 640.52 1022.92 631.52 1022.92 621.32C1022.92 611.24 1025.14 602.3 1029.58 594.5C1034.02 586.7 1040.08 580.7 1047.76 576.5C1055.44 572.3 1064.02 570.2 1073.5 570.2C1082.98 570.2 1091.56 572.3 1099.24 576.5C1106.92 580.7 1112.98 586.7 1117.42 594.5C1121.86 602.3 1124.08 611.24 1124.08 621.32C1124.08 631.4 1121.8 640.34 1117.24 648.14C1112.68 655.94 1106.44 662 1098.52 666.32C1090.72 670.52 1082.08 672.62 1072.6 672.62ZM1072.6 654.8C1077.88 654.8 1082.8 653.54 1087.36 651.02C1092.04 648.5 1095.82 644.72 1098.7 639.68C1101.58 634.64 1103.02 628.52 1103.02 621.32C1103.02 614.12 1101.64 608.06 1098.88 603.14C1096.12 598.1 1092.46 594.32 1087.9 591.8C1083.34 589.28 1078.42 588.02 1073.14 588.02C1067.86 588.02 1062.94 589.28 1058.38 591.8C1053.94 594.32 1050.4 598.1 1047.76 603.14C1045.12 608.06 1043.8 614.12 1043.8 621.32C1043.8 632 1046.5 640.28 1051.9 646.16C1057.42 651.92 1064.32 654.8 1072.6 654.8Z" fill="#DDBEA9"/>
<path d="M703.763 795.6C700.029 795.6 698.163 792.6 698.163 786.6C698.163 775 702.763 760.133 711.963 742C716.629 732.933 721.896 724.067 727.763 715.4C733.629 706.6 740.029 698.133 746.963 690V689.8C714.696 692.333 689.696 700.067 671.963 713C672.096 712.867 671.963 712.933 671.563 713.2C671.296 713.333 671.029 713.4 670.763 713.4C668.629 713.4 667.563 711.733 667.563 708.4C667.563 705.067 670.296 702.067 675.763 699.4C698.563 688.467 723.363 683 750.163 683C767.096 683 780.363 685.467 789.963 690.4C799.563 695.333 804.363 702.267 804.363 711.2C804.363 720.133 797.896 728.267 784.963 735.6C772.296 742.933 759.229 746.6 745.763 746.6C738.696 746.6 731.363 745.267 723.763 742.6C719.363 748.867 715.029 757.467 710.763 768.4C706.363 779.333 704.163 787.333 704.163 792.4L704.563 794.8C704.563 795.333 704.296 795.6 703.763 795.6ZM735.363 741C738.829 741 742.829 740.667 747.363 740C751.896 739.2 757.096 737.867 762.963 736C768.029 734.267 772.829 732.267 777.363 730C781.896 727.6 785.829 725.133 789.163 722.6C796.496 717 800.163 711.533 800.163 706.2C800.163 695.267 783.563 689.8 750.363 689.8C753.829 692.067 755.563 693.267 755.563 693.4C735.163 721.933 724.963 737.4 724.963 739.8C726.029 740.067 727.429 740.333 729.163 740.6C731.029 740.867 733.096 741 735.363 741ZM865.563 784.2C854.229 784.2 848.562 778.933 848.562 768.4C848.562 760.267 852.563 750.4 860.563 738.8C868.829 727.2 876.696 721.4 884.163 721.4C887.363 721.4 890.163 722.467 892.563 724.6C895.096 726.6 896.363 729.067 896.363 732C896.363 736.933 893.229 741.933 886.963 747C880.829 751.933 874.763 754.4 868.763 754.4C867.563 754.4 866.963 754.133 866.963 753.6L867.563 752.6C882.896 747.8 890.563 739.933 890.563 729C890.563 727.4 890.029 726.6 888.963 726.6C887.496 726.6 884.829 728.133 880.963 731.2C877.629 733.867 874.496 736.933 871.563 740.4C868.763 743.867 866.229 747.467 863.963 751.2C859.163 759.333 856.763 766.133 856.763 771.6C856.763 776.933 858.829 779.6 862.963 779.6C867.763 779.6 873.029 777.133 878.763 772.2C880.629 770.467 882.629 768.533 884.763 766.4C886.896 764.133 889.229 761.667 891.763 759C896.696 753.667 899.296 751 899.562 751C900.363 751 900.763 751.333 900.763 752C900.763 752.533 900.629 753.067 900.363 753.6C886.363 774 874.763 784.2 865.563 784.2ZM964.042 785.8C958.176 785.8 955.242 782.667 955.242 776.4C955.242 770.8 957.109 763.467 960.842 754.4C962.309 750.933 963.776 747.467 965.242 744C966.709 740.533 968.376 736.6 970.242 732.2C965.709 730.467 963.442 727.867 963.442 724.4C963.442 723.333 963.709 722.6 964.242 722.2C966.242 723.133 969.309 723.8 973.442 724.2C977.842 714.333 980.042 708.067 980.042 705.4C980.042 702.467 979.509 701 978.442 701L974.442 702C974.042 702 973.842 701.8 973.842 701.4C973.842 700.333 974.642 699.533 976.242 699C977.842 698.333 979.042 698 979.842 698C985.709 698 988.642 701.333 988.642 708C988.642 711.867 987.442 716.933 985.042 723.2C985.576 723.733 987.976 724 992.242 724C996.642 724 999.976 723.533 1002.24 722.6C1004.38 721.533 1005.91 721 1006.84 721C1007.24 721 1007.44 721.133 1007.44 721.4C1007.44 721.8 1007.11 722.333 1006.44 723C1003.64 725.4 1000.31 727.467 996.442 729.2C992.709 730.933 988.376 732.133 983.442 732.8H982.842C982.709 732.8 982.509 732.867 982.242 733C981.976 733 981.442 733.133 980.642 733.4C968.509 757.533 962.442 772.867 962.442 779.4C962.442 781.533 963.242 782.6 964.842 782.6L970.442 781.4L970.642 781.6C970.642 784.4 968.442 785.8 964.042 785.8ZM1059.01 786.6C1055.68 786.6 1052.75 786 1050.21 784.8C1047.81 783.6 1046.61 782.467 1046.61 781.4C1061.95 778.2 1069.61 774.333 1069.61 769.8C1069.61 768.867 1067.81 766.8 1064.21 763.6C1057.28 757.467 1053.81 750.6 1053.81 743C1053.81 737.533 1057.21 732.133 1064.01 726.8C1071.08 721.2 1077.48 718.4 1083.21 718.4C1084.15 718.4 1086.01 719.8 1088.81 722.6C1091.61 725.4 1093.01 727.2 1093.01 728C1093.01 728.667 1092.68 729 1092.01 729C1090.55 728.733 1089.35 728.533 1088.41 728.4C1087.48 728.133 1086.81 728 1086.41 728C1080.41 728 1074.21 730.2 1067.81 734.6C1061.55 739 1058.41 743.467 1058.41 748C1058.41 748.8 1061.55 752.867 1067.81 760.2C1074.08 767.267 1077.21 772.133 1077.21 774.8C1077.21 777.467 1075.35 780.067 1071.61 782.6C1069.61 783.933 1067.48 784.933 1065.21 785.6C1063.08 786.267 1061.01 786.6 1059.01 786.6Z" fill="#B7B7A4"/>
</svg>
